<svg version="1.1" viewBox="0 0 200 200" xmlns="http://www.w3.org/2000/svg" xmlns:xlink="http://www.w3.org/1999/xlink">
	<defs>
		<linearGradient id="e" x1="100" x2="100" y1="200" gradientUnits="userSpaceOnUse">
			<stop stop-color="#804000" offset="0"/>
			<stop stop-color="#800000" offset="1"/>
		</linearGradient>
		<linearGradient id="d" x1="100" x2="100" y1="200" gradientUnits="userSpaceOnUse">
			<stop stop-color="#a04020" offset="0"/>
			<stop stop-color="#a00000" offset="1"/>
		</linearGradient>
		<linearGradient id="c" x1="100" x2="100" y1="200" gradientUnits="userSpaceOnUse">
			<stop stop-color="#c04000" offset="0"/>
			<stop stop-color="#c00000" offset="1"/>
		</linearGradient>
		<linearGradient id="b" x1="100" x2="100" y1="200" gradientUnits="userSpaceOnUse">
			<stop stop-color="#e04000" offset="0"/>
			<stop stop-color="#e00000" offset="1"/>
		</linearGradient>
		<linearGradient id="a" x1="100" x2="100" y1="200" gradientUnits="userSpaceOnUse">
			<stop stop-color="#ff4000" offset="0"/>
			<stop stop-color="#f00" offset="1"/>
		</linearGradient>
	</defs>
	<path d="m100 12.5a81.25 81.25 0 0 0-81.25 81.25 81.25 81.25 0 0 0 81.25 81.25 81.25 81.25 0 0 0 81.25-81.25 81.25 81.25 0 0 0-81.25-81.25zm0 12.5a68.75 68.75 0 0 1 68.75 68.75 68.75 68.75 0 0 1-68.75 68.75 68.75 68.75 0 0 1-68.75-68.75 68.75 68.75 0 0 1 68.75-68.75z" fill="url(#e)" style="paint-order:stroke fill markers"/>
	<path d="m0 132.5h200l-100-65z" fill="url(#c)" fill-rule="evenodd" style="paint-order:stroke fill markers"/>
	<path d="m17.5 12.5 82.5 187.5 82.5-187.5-82.5 55z" fill="url(#d)" fill-rule="evenodd" style="paint-order:stroke fill markers"/>
	<path d="m72.5-5e-7s-32.5 2.5-32.5 47.5c-1e-6 35.6 60 152.5 60 152.5s60-116.9 60-152.5c0-45-32.5-47.5-32.5-47.5s17.62 12.5 17.62 42.5c0 32.5-37.62 70-45.12 70s-45.077-37.5-45.077-70c0-30 17.577-42.5 17.577-42.5z" fill="url(#b)" fill-rule="evenodd" style="paint-order:stroke fill markers"/>
	<path d="m100 132.5s-10-27.117-10-44.617c0-20 10-50.383 10-50.383s10 30.383 10 50.383c0 17.5-10 44.617-10 44.617z" fill="url(#a)" fill-rule="evenodd" style="paint-order:stroke fill markers"/>
</svg>
