<svg version="1.1" viewBox="0 0 200 190" xmlns="http://www.w3.org/2000/svg" xmlns:xlink="http://www.w3.org/1999/xlink">
	<defs>
		<linearGradient id="a">
			<stop stop-color="#c06000" offset="0"/>
			<stop stop-color="#c40000" offset="1"/>
		</linearGradient>
		<linearGradient id="d" x1="377.95" x2="377.95" y1="497.85" y2="64.389" gradientTransform="matrix(.26458 0 0 .26458 2.0566e-6 -5)" gradientUnits="userSpaceOnUse" xlink:href="#a"/>
		<linearGradient id="c" x1="377.95" x2="377.95" y1="623.62" y2="153.43" gradientTransform="matrix(.31765 0 0 .31765 -20.242 -21.178)" gradientUnits="userSpaceOnUse" xlink:href="#a"/>
		<linearGradient id="b" x1="377.95" x2="377.95" y1="623.62" y2="132.28" gradientTransform="matrix(.26458 0 0 .26458 2.0566e-6 -1.4072)" gradientUnits="userSpaceOnUse" xlink:href="#a"/>
		<linearGradient id="e" x1="100" x2="100" y1="287" y2="97" gradientUnits="userSpaceOnUse">
			<stop stop-color="#602000" offset="0"/>
			<stop stop-color="#400000" offset="1"/>
		</linearGradient>
	</defs>
	<g transform="translate(0,-97)">
		<path d="m21.652 100.59 15.283 35.483a77.373 77.373 0 0 0-15.672 46.568 77.373 77.373 0 0 0 3.0719 21.259l-22.951 14.407h28.709a77.373 77.373 0 0 0 59.979 41.138l10.318 23.956 10.449-24.451a77.373 77.373 0 0 0 56.317-40.644h31.461l-25.342-15.745a77.373 77.373 0 0 0 2.7343-19.921 77.373 77.373 0 0 0-13.754-44.004l16.093-37.657-30.972 21.619a77.373 77.373 0 0 0-48.741-17.331 77.373 77.373 0 0 0-47.394 16.332zm76.897 17.151a64.9 64.9 0 0 1 0.08663 0 64.9 64.9 0 0 1 37.993 12.36l-37.018 25.839-37.67-26.746a64.9 64.9 0 0 1 36.609-11.453zm-55.747 31.955 14.447 33.542-21.843 13.712a64.9 64.9 0 0 1-1.6701-14.31 64.9 64.9 0 0 1 9.0665-32.945zm113.42 3.0621a64.9 64.9 0 0 1 7.315 29.883 64.9 64.9 0 0 1-1.3385 13.038l-19.216-11.94zm-111.68 65.549h27.808l11.867 27.552a64.9 64.9 0 0 1-39.676-27.552zm83.663 0h24.566a64.9 64.9 0 0 1-35.928 26.587z" fill="url(#e)" style="paint-order:stroke fill markers"/>
	</g>
	<g transform="translate(0 -1.3599)">
		<path d="m8.6212 122.67 1.1273 1.4859v41.486l-0.78916 3.447 17.536-14.74v0.0596l0.5075-0.4163-0.5075-0.47523v-6.7159h-6.7662v2.7335l-3.7783 2.9122v-22.763h3.7783v1.4263h6.7662v-6.0031l-3.8341-2.437zm22.104 0-2.3681 3.2696v24.906l2.6833 3.3037h11.579l2.6535-3.3037v-25.145l-2.481-3.0313zm15.45 0 1.0714 1.7235v29.756h5.8641v-15.515l4.2262 10.009 4.1195-10.013v15.519h6.9796l-1.2849-1.685v-28.368l0.0056-1.4263h-6.7718l-3.2702 9.3905-3.4966-9.3905zm21.709 0 1.1279 1.4859v27.791l3.7845 2.2024h2.5306v-8.5263l10.432-6.1222v-14.394l-3.8341-2.437zm18.777 0 1.1273 1.4859v29.994h12.884l3.8633-2.1013v-7.0826h-6.7662v2.7335l-3.7783-0.0242v-6.1569h6.4845v-7.0131h-6.4845v-4.8212h3.7783v1.4263h6.7662v-6.0031l-3.8341-2.4364zm18.777 0 1.1279 1.4859v29.777l4e-3 0.21714h6.1998v-12.656l3.7777 9.1026v3.5537h6.7668v-29.994l1.1279-1.4859h-7.8947v12.212l-3.7777-12.184v-0.028zm19.905 0v31.48h12.954l3.7944-2.5697v-26.473l-3.8347-2.437zm17.322 0 1.0448 1.3537v30.126h2.5331l3.7256-2.2024v-29.277zm8.8985 0v29.277l4.0569 2.2024h9.0468l3.8124-2.4407v-29.039h-6.7668v24.522l-3.7777 0.031v-24.552zm17.818 0 1.0714 1.7241v29.538l-0.39458 0.35673 6.0899 4.8144v-15.334l4.2293 15.869 4.1158-11.827v15.809l-0.90208 1.3674 3.8348 3.0313 3.6648 2.8526-0.73271-3.5661v-43.208l0.45104-1.4269h-7.2178l-3.2702 9.3911-3.496-9.3911zm-134.65 6.4194h3.7777v18.323l-3.7777-0.0192zm40.486 0.59435h4.511v5.6569l-4.511 2.8533zm56.332 0h3.7777v17.743l-3.7777 0.0887z" fill="url(#c)" fill-rule="evenodd" style="paint-order:stroke fill markers"/>
	</g>
	<g transform="translate(0 2.4749)">
		<path d="m129.49 97.522-26.888 9.2392 6.0586 3.8881 18.608-0.2527 0.076 3.1232 17.149 0.0244-0.35347-3.097 7.9773-0.0506-0.35347-3.1807-7.9266-0.17673-1.1617-9.416zm-64.878 0.0822-12.139 2.3564-1.6423 10.781 12.567 2.7848 20.661 0.0134 12.766-2.2267-0.01061-5.4265-10.924-2.0707h-15.298l0.22531-2.5704h6.5629v1.7312l19.363-0.0176v-2.9993l-11.139-1.9988zm62.101 5.9004v3.282l-6.7939-0.0501zm-56.304 3.6675h6.5779l-0.03566 2.7848-6.7453 0.0357z" fill="url(#b)" fill-rule="evenodd" style="paint-order:stroke fill markers"/>
	</g>
	<g transform="matrix(1.2006 0 0 1.2006 -20.242 -11.86)">
		<path d="m147.39 35.033-0.79841 9.3534-3.2256-9.2821-14.873 0.0377 3.5786 2.6753 3.9274 42.187-1.3208 1.3373 14.101 8.7619-3.7843-26.438 9.2366 29.733 1.5121-21.878 4.1119 23.298-0.92811 1.5959 17.406 10.811-2.9275-6.4935-14.995-63.199 2.7848-2.4991zm-40.339 0.14262-4.7124 3.5703-0.0419 39.485 15.108 13.281 14.78-13.21-3.499-39.628-4.9268-3.4277zm-29.953 0.1788-5.2126 3.4985-4.6767 39.235 14.28 13.245 16.345-13.031 0.36328-39.521-4.5697-3.4272zm-14.029 0.19069-24.208 0.10077 2.2216 2.6257-14.44 62.988-2.6763 5.9321 39.986-25.107-1.3632-1.3517 5.8307-41.653zm50.551 9.5912h4.6411l1.1069 24.741-5.0695 4.391zm-57.595 0.25424-3.9383 24.689-7.0161 4.191 5.4529-28.779zm25.964 0.0315h4.5341l-1.6779 28.811-4.9268-4.4266z" fill="url(#d)" fill-rule="evenodd" style="paint-order:stroke fill markers"/>
	</g>
</svg>
