<?xml version="1.0" encoding="UTF-8" standalone="no"?>
<svg
   viewBox="0 0 200 190"
   version="1.1"
   id="svg8"
   xmlns:xlink="http://www.w3.org/1999/xlink"
   xmlns="http://www.w3.org/2000/svg"
   xmlns:svg="http://www.w3.org/2000/svg">
  <defs>
    <linearGradient
       id="linearGradient1653">
      <stop
         style="stop-color:#602000;stop-opacity:1"
         offset="0"
         id="stop2" />
      <stop
         style="stop-color:#400000;stop-opacity:1"
         offset="1"
         id="stop4" />
    </linearGradient>
    <linearGradient
       id="linearGradient54524">
      <stop
         style="stop-color:#c06000;stop-opacity:1"
         offset="0"
         id="stop7" />
      <stop
         style="stop-color:#c40000;stop-opacity:1"
         offset="1"
         id="stop9" />
    </linearGradient>
    <linearGradient
       xlink:href="#linearGradient54524"
       id="linearGradient2492"
       gradientUnits="userSpaceOnUse"
       x1="377.95276"
       y1="497.84961"
       x2="377.95276"
       y2="64.388611"
       gradientTransform="matrix(0.26458333,0,0,0.26458333,2.0566424e-6,-4.999997)" />
    <linearGradient
       xlink:href="#linearGradient54524"
       id="linearGradient5764"
       gradientUnits="userSpaceOnUse"
       gradientTransform="matrix(0.31764943,0,0,0.31764943,-20.242096,-21.178334)"
       x1="377.95276"
       y1="623.62201"
       x2="377.95276"
       y2="153.43102" />
    <linearGradient
       xlink:href="#linearGradient54524"
       id="linearGradient5766"
       gradientUnits="userSpaceOnUse"
       gradientTransform="matrix(0.26458333,0,0,0.26458333,2.0566424e-6,-1.4071826)"
       x1="377.95276"
       y1="623.62201"
       x2="377.95276"
       y2="132.28345" />
    <linearGradient
       xlink:href="#linearGradient1653"
       id="linearGradient1655"
       x1="100"
       y1="287"
       x2="100"
       y2="97"
       gradientUnits="userSpaceOnUse" />
  </defs>
  <g transform="translate(0,-97)">
    <path
       style="opacity:1;fill:url(#linearGradient1655);fill-opacity:1;stroke:none;stroke-width:1;stroke-linecap:round;stroke-linejoin:miter;stroke-miterlimit:4;stroke-dasharray:none;stroke-dashoffset:0;stroke-opacity:1;paint-order:stroke fill markers"
       d="m 21.652048,100.59418 15.282653,35.48294 a 77.373336,77.373336 0 0 0 -15.672297,46.56774 77.373336,77.373336 0 0 0 3.071904,21.25916 L 1.3831892,218.31093 H 30.092251 a 77.373336,77.373336 0 0 0 59.979061,41.13839 l 10.318338,23.9565 10.44868,-24.45091 a 77.373336,77.373336 0 0 0 56.31706,-40.64398 h 31.46142 l -25.34172,-15.74541 a 77.373336,77.373336 0 0 0 2.73426,-19.92066 77.373336,77.373336 0 0 0 -13.75424,-44.00379 l 16.09285,-37.65724 -30.97156,21.61866 A 77.373336,77.373336 0 0 0 98.635873,105.27138 77.373336,77.373336 0 0 0 51.24214,121.60314 Z M 98.5492,117.74516 a 64.900055,64.900055 0 0 1 0.08663,0 64.900055,64.900055 0 0 1 37.99262,12.35999 L 99.610313,155.94428 61.940262,129.1985 a 64.900055,64.900055 0 0 1 36.608894,-11.45334 z m -55.747262,31.95508 14.446848,33.54226 -21.843249,13.71204 a 64.900055,64.900055 0 0 1 -1.670104,-14.30968 64.900055,64.900055 0 0 1 9.066505,-32.94462 z m 113.418642,3.0621 a 64.900055,64.900055 0 0 1 7.31498,29.88252 64.900055,64.900055 0 0 1 -1.33848,13.03751 l -19.21601,-11.9402 z M 44.544394,218.31093 h 27.808433 l 11.867101,27.55221 A 64.900055,64.900055 0 0 1 44.544394,218.31093 Z m 83.663486,0 h 24.56622 a 64.900055,64.900055 0 0 1 -35.92836,26.58676 z"
       id="path18" />
  </g>
  <g transform="translate(0,-1.3599213)">
    <path
       style="fill:url(#linearGradient5764);fill-opacity:1;fill-rule:evenodd;stroke:none;stroke-width:0.600281;stroke-linecap:round;stroke-linejoin:miter;stroke-miterlimit:4;stroke-dasharray:none;stroke-opacity:1;paint-order:stroke fill markers"
       d="m 8.6211943,122.67096 1.127283,1.48588 v 41.48551 l -0.78916,3.44699 17.5364817,-14.73968 v 0.0596 l 0.507497,-0.4163 -0.507497,-0.47523 v -6.71592 h -6.76618 v 2.73352 l -3.778291,2.91221 v -22.76281 h 3.778291 v 1.42632 h 6.76618 v -6.00307 l -3.834126,-2.43697 z m 22.1039327,0 -2.368102,3.26956 v 24.90631 l 2.683271,3.30368 h 11.579313 l 2.65349,-3.30368 v -25.14455 l -2.481016,-3.03132 z m 15.450046,0 1.071447,1.72349 v 29.75606 h 5.864107 v -15.51457 l 4.226227,10.00906 4.119516,-10.0134 v 15.51891 h 6.9796 l -1.284866,-1.68503 v -28.3682 l 0.0056,-1.42632 H 60.38504 l -3.270177,9.3905 -3.496627,-9.3905 z m 21.709353,0 1.127907,1.48588 v 27.79122 l 3.784494,2.20245 h 2.530646 v -8.52628 l 10.431557,-6.12219 v -14.39411 l -3.834124,-2.43697 z m 18.777304,0 1.12728,1.48588 v 29.99367 h 12.88404 l 3.86328,-2.10132 v -7.08259 h -6.76618 v 2.73352 l -3.77829,-0.0242 v -6.15694 h 6.48452 v -7.0131 h -6.48452 v -4.82121 h 3.77829 v 1.42632 h 6.76618 v -6.00307 l -3.83412,-2.43635 z m 18.77668,0 1.1279,1.48588 v 29.77653 l 0.004,0.21714 h 2.04362 4.15613 v -12.65634 l 3.77766,9.10265 v 3.55369 h 6.7668 v -29.99367 l 1.12791,-1.48588 h -7.89471 v 12.21151 l -3.77766,-12.1836 v -0.028 z m 19.90458,0 v 1.48588 29.99367 h 12.95352 l 3.79442,-2.56973 v -26.47285 l -3.83474,-2.43697 z m 17.32246,0 1.04478,1.35373 v 30.12582 h 2.53312 l 3.72556,-2.20245 v -29.2771 z m 8.8985,0 v 29.2771 l 4.05686,2.20245 h 9.0468 l 3.81242,-2.44069 v -29.03886 h -6.7668 v 24.52167 l -3.77767,0.031 v -24.55206 z m 17.81816,0 1.07145,1.72412 v 29.53829 l -0.39458,0.35673 6.08992,4.81437 v -15.33402 l 4.22933,15.86883 4.1158,-11.82749 v 15.80927 l -0.90208,1.36738 3.83476,3.03132 3.66475,2.85264 -0.73271,-3.56611 V 124.0979 l 0.45104,-1.42694 h -7.21784 l -3.27017,9.39113 -3.49601,-9.39113 z M 34.728628,129.09033 H 38.5063 v 18.32254 l -3.777672,-0.0192 z m 40.486034,0.59435 h 4.510994 v 5.6569 l -4.510994,2.85326 z m 56.331898,0 h 3.77767 v 17.74308 l -3.77767,0.0887 z"
       id="path22" />
  </g>
  <g transform="translate(0,2.4748737)">
    <path
       style="fill:url(#linearGradient5766);fill-opacity:1;fill-rule:evenodd;stroke:none;stroke-width:0.499999;stroke-linecap:round;stroke-linejoin:miter;stroke-miterlimit:4;stroke-dasharray:none;stroke-opacity:1;paint-order:stroke fill markers"
       d="m 129.4877,97.522145 -26.88828,9.239225 6.05855,3.88814 18.60816,-0.2527 0.076,3.12323 17.14883,0.0244 -0.35347,-3.09697 7.97729,-0.0506 -0.35347,-3.18069 -7.92665,-0.17673 -1.16168,-9.415955 z m -64.87769,0.0822 -12.138792,2.35644 -1.642277,10.781255 12.567189,2.78484 20.660755,0.0134 12.765904,-2.22667 -0.01061,-5.42654 -10.9244,-2.07068 h -15.29777 l 0.225309,-2.57037 h 6.562904 v 1.73116 l 19.362645,-0.0176 v -2.999305 l -11.138855,-1.99884 z m 62.10112,5.900415 v 3.28196 l -6.7939,-0.0501 z m -56.303541,3.66747 h 6.577894 l -0.03566,2.78484 -6.745324,0.0357 z"
       id="path26" />
  </g>
  <g transform="matrix(1.2005648,0,0,1.2005648,-20.242098,-11.859766)">
    <path
       style="display:inline;fill:url(#linearGradient2492);fill-opacity:1;fill-rule:evenodd;stroke:none;stroke-width:0.499999;stroke-linecap:round;stroke-linejoin:miter;stroke-miterlimit:4;stroke-dasharray:none;stroke-opacity:1;paint-order:stroke fill markers"
       d="m 147.39462,35.033221 -0.79841,9.35343 -3.22564,-9.28212 -14.87299,0.0377 3.57859,2.67529 3.92741,42.18657 -1.32085,1.337297 14.10147,8.761931 -3.78427,-26.437758 9.23664,29.73255 1.51206,-21.87825 4.11189,23.297772 -0.92811,1.595916 17.40566,10.811131 -2.92747,-6.49347 -14.99495,-63.198939 2.78484,-2.49907 z m -40.33862,0.14262 -4.71237,3.57033 -0.0419,39.48544 15.10761,13.28084 14.78049,-13.20952 -3.49901,-39.62808 -4.92683,-3.42769 z m -29.952696,0.1788 -5.212601,3.4985 -4.676717,39.23533 14.280266,13.24518 16.344739,-13.03072 0.363283,-39.5211 -4.569745,-3.42719 z m -14.029118,0.19069 -24.20834,0.10077 2.221571,2.62568 -14.439947,62.987889 -2.676322,5.93207 39.985672,-25.107261 -1.363223,-1.351728 5.830652,-41.65327 z m 50.550924,9.59115 h 4.64106 l 1.10691,24.74112 -5.06946,4.39095 z m -57.594937,0.25424 -3.938262,24.68893 -7.016109,4.19096 5.452898,-28.77912 z m 25.96379,0.0315 h 4.53409 l -1.677934,28.81064 -4.92683,-4.4266 z"
       id="path30" />
  </g>
</svg>