<?xml version="1.0" encoding="UTF-8" standalone="no"?>
<!-- Created with Inkscape (http://www.inkscape.org/) -->

<svg
   width="1000"
   height="200"
   viewBox="0 0 264.58333 52.916668"
   version="1.1"
   id="svg5"
   inkscape:version="1.1.1 (3bf5ae0d25, 2021-09-20)"
   sodipodi:docname="drawing-1.svg"
   xmlns:inkscape="http://www.inkscape.org/namespaces/inkscape"
   xmlns:sodipodi="http://sodipodi.sourceforge.net/DTD/sodipodi-0.dtd"
   xmlns:xlink="http://www.w3.org/1999/xlink"
   xmlns="http://www.w3.org/2000/svg"
   xmlns:svg="http://www.w3.org/2000/svg">
  <sodipodi:namedview
     id="namedview7"
     pagecolor="#ffffff"
     bordercolor="#666666"
     borderopacity="1.0"
     inkscape:pageshadow="2"
     inkscape:pageopacity="0"
     inkscape:pagecheckerboard="0"
     inkscape:document-units="mm"
     showgrid="false"
     units="px"
     width="1000px"
     inkscape:zoom="0.54047838"
     inkscape:cx="513.43405"
     inkscape:cy="383.91915"
     inkscape:window-width="1920"
     inkscape:window-height="1017"
     inkscape:window-x="-8"
     inkscape:window-y="-8"
     inkscape:window-maximized="1"
     inkscape:current-layer="layer1" />
  <defs
     id="defs2">
    <linearGradient
       inkscape:collect="always"
       id="linearGradient34252">
      <stop
         style="stop-color:#000000;stop-opacity:1;"
         offset="0"
         id="stop34248" />
      <stop
         style="stop-color:#ff0000;stop-opacity:1"
         offset="1"
         id="stop34250" />
    </linearGradient>
    <linearGradient
       inkscape:collect="always"
       xlink:href="#linearGradient34252"
       id="linearGradient34254"
       x1="33.579796"
       y1="93.707245"
       x2="33.579796"
       y2="85.723709"
       gradientUnits="userSpaceOnUse" />
    <linearGradient
       inkscape:collect="always"
       xlink:href="#linearGradient34252"
       id="linearGradient34355"
       gradientUnits="userSpaceOnUse"
       x1="33.579796"
       y1="93.707245"
       x2="33.579796"
       y2="85.723709" />
    <linearGradient
       inkscape:collect="always"
       xlink:href="#linearGradient34252"
       id="linearGradient34357"
       gradientUnits="userSpaceOnUse"
       x1="33.579796"
       y1="93.707245"
       x2="33.579796"
       y2="85.723709" />
    <linearGradient
       inkscape:collect="always"
       xlink:href="#linearGradient34252"
       id="linearGradient34359"
       gradientUnits="userSpaceOnUse"
       x1="33.579796"
       y1="93.707245"
       x2="33.579796"
       y2="85.723709" />
    <linearGradient
       inkscape:collect="always"
       xlink:href="#linearGradient34252"
       id="linearGradient34361"
       gradientUnits="userSpaceOnUse"
       x1="33.579796"
       y1="93.707245"
       x2="33.579796"
       y2="85.723709" />
    <linearGradient
       inkscape:collect="always"
       xlink:href="#linearGradient34252"
       id="linearGradient34363"
       gradientUnits="userSpaceOnUse"
       x1="33.579796"
       y1="93.707245"
       x2="33.579796"
       y2="85.723709" />
    <linearGradient
       inkscape:collect="always"
       xlink:href="#linearGradient34252"
       id="linearGradient34365"
       gradientUnits="userSpaceOnUse"
       x1="33.579796"
       y1="93.707245"
       x2="33.579796"
       y2="85.723709" />
    <linearGradient
       inkscape:collect="always"
       xlink:href="#linearGradient34252"
       id="linearGradient34367"
       gradientUnits="userSpaceOnUse"
       x1="33.579796"
       y1="93.707245"
       x2="33.579796"
       y2="85.723709" />
    <linearGradient
       inkscape:collect="always"
       xlink:href="#linearGradient34252"
       id="linearGradient34369"
       gradientUnits="userSpaceOnUse"
       x1="33.579796"
       y1="93.707245"
       x2="33.579796"
       y2="85.723709" />
    <linearGradient
       inkscape:collect="always"
       xlink:href="#linearGradient34252"
       id="linearGradient34371"
       gradientUnits="userSpaceOnUse"
       x1="33.579796"
       y1="93.707245"
       x2="33.579796"
       y2="85.723709" />
    <linearGradient
       inkscape:collect="always"
       xlink:href="#linearGradient34252"
       id="linearGradient34373"
       gradientUnits="userSpaceOnUse"
       x1="33.579796"
       y1="93.707245"
       x2="33.579796"
       y2="85.723709" />
    <linearGradient
       inkscape:collect="always"
       xlink:href="#linearGradient34252"
       id="linearGradient34375"
       gradientUnits="userSpaceOnUse"
       x1="33.579796"
       y1="93.707245"
       x2="33.579796"
       y2="85.723709" />
    <linearGradient
       inkscape:collect="always"
       xlink:href="#linearGradient34252"
       id="linearGradient34377"
       gradientUnits="userSpaceOnUse"
       x1="33.579796"
       y1="93.707245"
       x2="33.579796"
       y2="85.723709" />
    <linearGradient
       inkscape:collect="always"
       xlink:href="#linearGradient34252"
       id="linearGradient34379"
       gradientUnits="userSpaceOnUse"
       x1="33.579796"
       y1="93.707245"
       x2="33.579796"
       y2="85.723709" />
    <linearGradient
       inkscape:collect="always"
       xlink:href="#linearGradient34252"
       id="linearGradient34381"
       gradientUnits="userSpaceOnUse"
       x1="33.579796"
       y1="93.707245"
       x2="33.579796"
       y2="85.723709" />
    <linearGradient
       inkscape:collect="always"
       xlink:href="#linearGradient34252"
       id="linearGradient34383"
       gradientUnits="userSpaceOnUse"
       x1="33.579796"
       y1="93.707245"
       x2="33.579796"
       y2="85.723709" />
    <linearGradient
       inkscape:collect="always"
       xlink:href="#linearGradient34252"
       id="linearGradient34385"
       gradientUnits="userSpaceOnUse"
       x1="33.579796"
       y1="93.707245"
       x2="33.579796"
       y2="85.723709" />
  </defs>
  <g
     inkscape:label="Layer 1"
     inkscape:groupmode="layer"
     id="layer1">
    <g
       aria-label="DooM 64 CoMPeNDiUM"
       id="text1618"
       style="font-size:9.87777px;font-family:Spectrashell;-inkscape-font-specification:Spectrashell;text-align:center;letter-spacing:0px;word-spacing:0px;text-anchor:middle;fill:url(#linearGradient34254);fill-opacity:1;stroke:none;stroke-width:0.264583px;stroke-opacity:1"
       transform="matrix(6.4997161,0,0,6.4997161,-214.11551,-556.66678)">
      <path
         d="m 35.100971,91.767228 v -4.09363 l -0.671689,-1.521177 h -0.632177 v 6.740872 h -0.217311 l 0.217311,0.395111 h 0.750711 z m -0.414866,0.03951 -0.414867,1.086554 h -0.05927 v -6.345761 l 0.474133,1.165577 z"
         style="-inkscape-font-specification:HouseGenCol;fill:url(#linearGradient34355);fill-opacity:1;stroke:none;stroke-opacity:1"
         id="path33353"
         sodipodi:nodetypes="ccccccccccccccc" />
      <path
         d="m 37.195044,91.688205 v -5.555539 h -1.303866 v 5.555539 z m -0.414866,-0.39511 h -0.474133 v -4.765318 h 0.474133 z m 0.434621,1.422399 h -0.474133 l -0.187677,0.158044 -0.1778,-0.158044 h -0.484011 l 0.661811,0.553155 z"
         style="-inkscape-font-specification:HouseGenCol;fill:url(#linearGradient34357);fill-opacity:1;stroke:none;stroke-opacity:1"
         id="path33355"
         sodipodi:nodetypes="ccccccccccccccccc" />
      <path
         d="m 39.368146,91.688205 v -5.555539 h -1.303865 v 5.555539 z m -0.414866,-0.39511 h -0.474133 v -4.765318 h 0.474133 z m 0.434622,1.422399 h -0.474133 l -0.187678,0.158044 -0.1778,-0.158044 h -0.48401 l 0.66181,0.553155 z"
         style="-inkscape-font-specification:HouseGenCol;fill:url(#linearGradient34359);fill-opacity:1;stroke:none;stroke-opacity:1"
         id="path33357"
         sodipodi:nodetypes="ccccccccccccccccc" />
      <path
         d="m 42.538904,93.288404 v -0.395111 h -0.187678 v -6.740872 h -0.829732 l -0.276578,0.158045 -0.246944,-0.158045 h -1.116188 l 0.276577,0.158045 v 6.582827 H 39.94105 l 0.217311,0.395111 h 0.414867 v -6.740872 h 0.474133 v 6.740872 h 0.414866 v -6.740872 h 0.474133 v 6.740872 z"
         style="-inkscape-font-specification:HouseGenCol;fill:url(#linearGradient34361);fill-opacity:1;stroke:none;stroke-opacity:1"
         id="path33359"
         sodipodi:nodetypes="ccccccccccccccccccccc" />
      <path
         d="m 46.480112,93.278526 v -4.281307 l -0.888999,-0.642055 v -1.81751 h 0.879121 v -0.39511 h -1.293988 v 6.740872 h -0.217311 l 0.217311,0.39511 z m -0.414866,-0.39511 h -0.474133 v -4.044241 l 0.474133,0.375355 z"
         style="-inkscape-font-specification:HouseGenCol;fill:url(#linearGradient34363);fill-opacity:1;stroke:none;stroke-opacity:1"
         id="path33361"
         sodipodi:nodetypes="cccccccccccccccc" />
      <path
         d="M 47.76422,88.829297 H 47.290087 V 87.66372 L 47.76422,86.438877 47.467887,86.142544 46.87522,87.66372 v 1.560688 h 0.889 v 3.659008 h -0.197556 l 0.197556,0.39511 h 0.632177 v -0.39511 h -0.217311 v -6.602584 l 0.286455,-0.138288 H 47.76422 Z"
         style="-inkscape-font-specification:HouseGenCol;fill:url(#linearGradient34365);fill-opacity:1;stroke:none;stroke-opacity:1"
         id="path33363"
         sodipodi:nodetypes="cccccccccccccccccc" />
      <path
         d="m 52.386999,93.288404 v -1.955798 l -0.414866,0.395111 v 1.165576 H 51.498 v -6.345761 h 0.474133 v 1.560688 l 0.414866,-0.395111 v -1.560688 h -1.590321 l 0.286456,0.1778 v 6.563072 h -0.217311 l 0.217311,0.395111 z"
         style="-inkscape-font-specification:HouseGenCol;fill:url(#linearGradient34367);fill-opacity:1;stroke:none;stroke-opacity:1"
         id="path33365"
         sodipodi:nodetypes="cccccccccccccccc" />
      <path
         d="m 54.40205,91.688205 v -5.555539 h -1.303865 v 5.555539 z m -0.414866,-0.39511 h -0.474133 v -4.765318 h 0.474133 z m 0.434622,1.422399 h -0.474133 l -0.187678,0.158044 -0.1778,-0.158044 h -0.48401 l 0.66181,0.553155 z"
         style="-inkscape-font-specification:HouseGenCol;fill:url(#linearGradient34369);fill-opacity:1;stroke:none;stroke-opacity:1"
         id="path33367"
         sodipodi:nodetypes="ccccccccccccccccc" />
      <path
         d="m 57.572807,93.288404 v -0.395111 h -0.187678 v -6.740872 h -0.829733 l -0.276577,0.158045 -0.246945,-0.158045 h -1.116188 l 0.276578,0.158045 v 6.582827 h -0.217311 l 0.217311,0.395111 h 0.414866 v -6.740872 h 0.474133 v 6.740872 h 0.414867 v -6.740872 h 0.474133 v 6.740872 z"
         style="-inkscape-font-specification:HouseGenCol;fill:url(#linearGradient34371);fill-opacity:1;stroke:none;stroke-opacity:1"
         id="path33369"
         sodipodi:nodetypes="ccccccccccccccccccccc" />
      <path
         d="m 59.627375,87.653843 -0.671688,-1.521177 h -0.918633 l 0.286456,0.148166 v 6.592706 h -0.217311 l 0.217311,0.395111 h 0.602544 v -0.395111 h -0.187678 v -3.955341 l 0.345722,0.207433 z m -0.414866,0.03951 -0.474133,1.224843 v -2.39042 z"
         style="-inkscape-font-specification:HouseGenCol;fill:url(#linearGradient34373);fill-opacity:1;stroke:none;stroke-opacity:1"
         id="path33371"
         sodipodi:nodetypes="ccccccccccccccccc" />
      <path
         d="m 61.61279,91.737594 v -1.955798 l -0.414867,0.395111 v 1.165576 H 60.72379 v -2.187219 l 0.681566,-0.404989 h -0.671688 l -0.0099,0.0099 v -2.222499 h 0.474133 v 1.560688 l 0.414867,-0.395111 v -1.560687 h -1.590321 l 0.286455,0.1778 v 5.022139 h -0.217311 l 0.217311,0.395111 z m 0.0099,0.987777 h -0.474133 l -0.187677,0.158045 -0.1778,-0.158045 h -0.484011 l 0.661811,0.553155 z"
         style="-inkscape-font-specification:HouseGenCol;fill:url(#linearGradient34375);fill-opacity:1;stroke:none;stroke-opacity:1"
         id="path33373"
         sodipodi:nodetypes="ccccccccccccccccccccccccccc" />
      <path
         d="m 64.003195,93.268649 v -0.395111 h -0.187677 v -6.345761 l -0.414867,-0.395111 h -1.175454 l 0.286455,0.158044 v 6.582828 h -0.217311 l 0.217311,0.395111 h 0.414866 v -6.740872 h 0.474133 v 6.740872 z"
         style="-inkscape-font-specification:HouseGenCol;fill:url(#linearGradient34377);fill-opacity:1;stroke:none;stroke-opacity:1"
         id="path33375"
         sodipodi:nodetypes="ccccccccccccccc" />
      <path
         d="m 65.909599,91.767228 v -4.09363 l -0.671688,-1.521177 h -0.632178 v 6.740872 h -0.217311 l 0.217311,0.395111 h 0.750711 z m -0.414866,0.03951 -0.414867,1.086554 H 65.0206 v -6.345761 l 0.474133,1.165577 z"
         style="-inkscape-font-specification:HouseGenCol;fill:url(#linearGradient34379);fill-opacity:1;stroke:none;stroke-opacity:1"
         id="path33377"
         sodipodi:nodetypes="ccccccccccccccc" />
      <path
         d="m 67.598682,86.162299 h -0.671689 v 5.19994 h -0.217311 l 0.217311,0.395111 h 0.632177 v -0.395111 h -0.217311 v -5.041895 z m 0.227188,6.582828 h -0.474133 l -0.187677,0.158044 -0.1778,-0.158044 h -0.484011 l 0.661811,0.553155 z"
         style="-inkscape-font-specification:HouseGenCol;fill:url(#linearGradient34381);fill-opacity:1;stroke:none;stroke-opacity:1"
         id="path33379"
         sodipodi:nodetypes="ccccccccccccccccc" />
      <path
         d="m 70.107625,86.132666 h -0.671688 v 6.740872 h -0.474133 v -6.740872 h -0.7112 l 0.296333,0.158044 v 6.582828 h -0.217311 l 0.217311,0.395111 h 1.303866 v -6.987817 z"
         style="-inkscape-font-specification:HouseGenCol;fill:url(#linearGradient34383);fill-opacity:1;stroke:none;stroke-opacity:1"
         id="path33381"
         sodipodi:nodetypes="ccccccccccccc" />
      <path
         d="m 73.011686,93.288404 v -0.395111 h -0.187678 v -6.740872 h -0.829733 l -0.276577,0.158045 -0.246945,-0.158045 h -1.116188 l 0.276578,0.158045 v 6.582827 h -0.217311 l 0.217311,0.395111 h 0.414866 v -6.740872 h 0.474133 v 6.740872 h 0.414867 v -6.740872 h 0.474133 v 6.740872 z"
         style="-inkscape-font-specification:HouseGenCol;fill:url(#linearGradient34385);fill-opacity:1;stroke:none;stroke-opacity:1"
         id="path33383"
         sodipodi:nodetypes="ccccccccccccccccccccc" />
    </g>
  </g>
</svg>
