<?xml version="1.0" encoding="UTF-8" standalone="no"?>

<svg
   viewBox="0 0 200 190"
   version="1.1"
   id="svg8"
   xmlns:xlink="http://www.w3.org/1999/xlink"
   xmlns="http://www.w3.org/2000/svg"
   xmlns:svg="http://www.w3.org/2000/svg">
  <defs>
    <linearGradient
       id="linearGradient1653">
      <stop
         style="stop-color:#602000;stop-opacity:1"
         offset="0" />
      <stop
         style="stop-color:#400000;stop-opacity:1"
         offset="1" />
    </linearGradient>
    <linearGradient
       id="linearGradient54524">
      <stop
         style="stop-color:#c06000;stop-opacity:1"
         offset="0" />
      <stop
         style="stop-color:#c40000;stop-opacity:1"
         offset="1" />
    </linearGradient>
    <linearGradient
       xlink:href="#linearGradient54524"
       id="linearGradient2492"
       gradientUnits="userSpaceOnUse"
       x1="377.95276"
       y1="623.62201"
       x2="377.95276"
       y2="132.28345"
       gradientTransform="matrix(0.26458333,0,0,0.26458333,2.0566424e-6,-4.999997)" />
    <linearGradient
       xlink:href="#linearGradient54524"
       id="linearGradient5764"
       gradientUnits="userSpaceOnUse"
       gradientTransform="matrix(0.26458333,0,0,0.26458333,2.0566423e-6,1.4607232)"
       x1="377.95276"
       y1="623.62201"
       x2="377.95276"
       y2="132.28345" />
    <linearGradient
       xlink:href="#linearGradient54524"
       id="linearGradient5766"
       gradientUnits="userSpaceOnUse"
       gradientTransform="matrix(0.26458333,0,0,0.26458333,2.0566424e-6,-1.4071826)"
       x1="377.95276"
       y1="623.62201"
       x2="377.95276"
       y2="132.28345" />
    <linearGradient
       xlink:href="#linearGradient1653"
       id="linearGradient1655"
       x1="100"
       y1="287"
       x2="100"
       y2="97"
       gradientUnits="userSpaceOnUse" />
  </defs>
  <g
     transform="translate(0,-97)">
    <path
       style="opacity:1;fill:url(#linearGradient1655);fill-opacity:1;stroke:none;stroke-width:1;stroke-linecap:round;stroke-linejoin:miter;stroke-miterlimit:4;stroke-dasharray:none;stroke-dashoffset:0;stroke-opacity:1;paint-order:stroke fill markers"
       d="m 21.652048,100.59418 15.282653,35.48294 a 77.373336,77.373336 0 0 0 -15.672297,46.56774 77.373336,77.373336 0 0 0 3.071904,21.25916 L 1.3831892,218.31093 H 30.092251 a 77.373336,77.373336 0 0 0 59.979061,41.13839 l 10.318338,23.9565 10.44868,-24.45091 a 77.373336,77.373336 0 0 0 56.31706,-40.64398 h 31.46142 l -25.34172,-15.74541 a 77.373336,77.373336 0 0 0 2.73426,-19.92066 77.373336,77.373336 0 0 0 -13.75424,-44.00379 l 16.09285,-37.65724 -30.97156,21.61866 A 77.373336,77.373336 0 0 0 98.635873,105.27138 77.373336,77.373336 0 0 0 51.24214,121.60314 Z M 98.5492,117.74516 a 64.900055,64.900055 0 0 1 0.08663,0 64.900055,64.900055 0 0 1 37.99262,12.35999 L 99.610313,155.94428 61.940262,129.1985 a 64.900055,64.900055 0 0 1 36.608894,-11.45334 z m -55.747262,31.95508 14.446848,33.54226 -21.843249,13.71204 a 64.900055,64.900055 0 0 1 -1.670104,-14.30968 64.900055,64.900055 0 0 1 9.066505,-32.94462 z m 113.418642,3.0621 a 64.900055,64.900055 0 0 1 7.31498,29.88252 64.900055,64.900055 0 0 1 -1.33848,13.03751 l -19.21601,-11.9402 z M 44.544394,218.31093 h 27.808433 l 11.867101,27.55221 A 64.900055,64.900055 0 0 1 44.544394,218.31093 Z m 83.663486,0 h 24.56622 a 64.900055,64.900055 0 0 1 -35.92836,26.58676 z" />
  </g>
  <g>
    <path
       style="fill:url(#linearGradient5764);fill-opacity:1;fill-rule:evenodd;stroke:none;stroke-width:0.499999;stroke-linecap:round;stroke-linejoin:miter;stroke-miterlimit:4;stroke-dasharray:none;stroke-opacity:1;paint-order:stroke fill markers"
       d="m 24.041428,121.27874 0.938961,1.23765 v 34.555 l -0.657324,2.87114 14.60686,-12.27729 v 0.0496 l 0.422715,-0.34675 -0.422715,-0.39584 v -5.59397 h -5.635831 v 2.27686 l -3.147094,2.4257 v -18.96008 h 3.147094 v 1.18804 h 5.635831 v -5.00021 l -3.193602,-2.02985 z m 18.411279,0 -1.97249,2.72335 v 20.7455 l 2.235007,2.75177 h 9.644888 l 2.210202,-2.75177 v -20.94394 l -2.066541,-2.52491 z m 12.868981,0 0.892453,1.43557 v 24.78505 h 4.884457 v -12.92273 l 3.520199,8.33696 3.431315,-8.34057 v 12.92634 h 5.813597 l -1.070218,-1.40353 v -23.62905 l 0.0047,-1.18804 h -5.640482 l -2.723865,7.82174 -2.912485,-7.82174 z m 18.082617,0 0.93948,1.23765 v 23.14846 l 3.152262,1.83451 h 2.107879 v -7.10189 l 8.688877,-5.09943 v -11.98945 l -3.193602,-2.02985 z m 15.640391,0 0.938959,1.23765 v 24.98297 H 100.7153 l 3.21789,-1.75028 v -5.89938 h -5.635829 v 2.27686 l -3.147095,-0.0202 v -5.12837 h 5.401224 v -5.8415 h -5.401224 v -4.01578 h 3.147095 v 1.18804 h 5.635829 v -5.00021 l -3.1936,-2.02933 z m 15.639874,0 0.93947,1.23765 v 24.8021 l 0.003,0.18087 h 1.70222 3.46181 v -10.54199 l 3.14657,7.58197 v 2.96002 h 5.63635 v -24.98297 l 0.93948,-1.23765 h -6.57583 v 10.17147 l -3.14657,-10.14822 v -0.0233 z m 16.57935,0 v 1.23765 24.98297 h 10.78952 l 3.16053,-2.14044 v -22.05033 l -3.19412,-2.02985 z m 14.42859,0 0.87024,1.12758 v 25.09304 h 2.10994 l 3.10317,-1.83451 v -24.38611 z m 7.41193,0 v 24.38611 l 3.37912,1.83451 h 7.53546 l 3.17552,-2.03295 v -24.18767 h -5.63635 v 20.42511 l -3.14658,0.0258 v -20.45043 z m 14.84148,0 0.89245,1.43609 v 24.60366 l -0.32866,0.29714 5.07255,4.01009 v -12.77234 l 3.52278,13.2178 3.42822,-9.8516 v 13.16819 l -0.75138,1.13895 3.19413,2.52491 3.05252,2.37608 -0.6103,-2.97036 V 122.4673 l 0.37569,-1.18856 h -6.01204 l -2.72386,7.82226 -2.91197,-7.82226 z M 45.787388,126.6257 h 3.146579 v 15.2616 l -3.146579,-0.016 z m 33.72249,0.49506 h 3.757393 v 4.71186 l -3.757393,2.3766 z m 46.921162,0 h 3.14658 v 14.77894 l -3.14658,0.0739 z" />
  </g>
  <g>
    <path
       style="fill:url(#linearGradient5766);fill-opacity:1;fill-rule:evenodd;stroke:none;stroke-width:0.499999;stroke-linecap:round;stroke-linejoin:miter;stroke-miterlimit:4;stroke-dasharray:none;stroke-opacity:1;paint-order:stroke fill markers"
       d="m 129.4877,97.522145 -26.88828,9.239225 6.05855,3.88814 18.60816,-0.2527 0.076,3.12323 17.14883,0.0244 -0.35347,-3.09697 7.97729,-0.0506 -0.35347,-3.18069 -7.92665,-0.17673 -1.16168,-9.415955 z m -64.87769,0.0822 -12.138792,2.35644 -1.642277,10.781255 12.567189,2.78484 20.660755,0.0134 12.765904,-2.22667 -0.01061,-5.42654 -10.9244,-2.07068 h -15.29777 l 0.225309,-2.57037 h 6.562904 v 1.73116 l 19.362645,-0.0176 v -2.999305 l -11.138855,-1.99884 z m 62.10112,5.900415 v 3.28196 l -6.7939,-0.0501 z m -56.303541,3.66747 h 6.577894 l -0.03566,2.78484 -6.745324,0.0357 z" />
  </g>
  <g>
    <path
       style="display:inline;fill:url(#linearGradient2492);fill-opacity:1;fill-rule:evenodd;stroke:none;stroke-width:0.499999;stroke-linecap:round;stroke-linejoin:miter;stroke-miterlimit:4;stroke-dasharray:none;stroke-opacity:1;paint-order:stroke fill markers"
       d="m 147.39462,35.033221 -0.79841,9.35343 -3.22564,-9.28212 -14.87299,0.0377 3.57859,2.67529 3.92741,42.18657 -1.32085,1.52601 14.10147,8.99945 -3.78427,-26.86399 9.23664,29.73255 1.51206,-21.87825 4.11189,23.297772 -0.92811,1.85621 17.40566,10.840417 -2.92747,-6.78305 -14.99495,-63.198939 2.78484,-2.49907 z m -40.33862,0.14262 -4.71237,3.57033 -0.0419,39.48544 15.10761,13.28084 14.78049,-13.20952 -3.49901,-39.62808 -4.92683,-3.42769 z m -29.952696,0.1788 -5.212601,3.4985 -4.676717,39.23533 14.280266,13.24518 16.344739,-13.03072 0.363283,-39.5211 -4.569745,-3.42719 z m -14.029118,0.19069 -24.20834,0.10077 2.221571,2.62568 -14.439947,62.987889 -2.676322,6.15983 39.985672,-25.474929 -1.363223,-1.21182 5.830652,-41.65327 z m 50.550924,9.59115 h 4.64106 l 1.10691,24.74112 -5.06946,4.39095 z m -57.594937,0.25424 -3.938262,24.68893 -7.016109,4.19096 5.452898,-28.77912 z m 25.96379,0.0315 h 4.53409 l -1.677934,28.81064 -4.92683,-4.4266 z" />
  </g>
</svg>