<svg width="42mm" height="40mm" version="1.1" viewBox="0 0 42 40" xmlns="http://www.w3.org/2000/svg">
	<g transform="translate(-69.868 -64.906)">
		<g fill="#202020" stroke-width=".265">
			<path d="m76 70v30l-5-15z" stroke="#606000" stroke-linejoin="round"/>
			<path d="m76 100v-30h5v30z" stroke="#808080"/>
			<path d="m81 100v-30l20-2e-6v30z" stroke="#808080"/>
		</g>
		<path transform="rotate(-90)" d="m-88.778 79.702h0.31327v-2.1082h0.31327v-0.31327h-0.31327c-0.17357 0-0.31327 0.1397-0.31327 0.31327zm1.8034-2.1082c0-0.17357-0.1397-0.31327-0.31327-0.31327h-0.5588v0.31327h0.5588v0.32597h-0.31327c-0.17357 0-0.31327 0.1397-0.31327 0.31327v1.1557c0 0.17357 0.1397 0.31327 0.31327 0.31327h0.62653zm-0.62653 0.63923h0.31327v1.1557h-0.31327zm1.2531-0.9525h-0.31327v2.1336c0 0.08467 0.03387 0.1651 0.09313 0.22013 0.05927 0.05503 0.13547 0.0889 0.22013 0.09313zm0-0.60113h-0.31327v0.31327h0.31327zm0.31327 3.0226h0.31327v-2.7347c0-0.08467-0.03387-0.1651-0.09313-0.22013-0.05927-0.05503-0.13547-0.0889-0.22013-0.09313zm0.9398-2.4215h-0.31327v2.1336c0 0.08467 0.03387 0.1651 0.09313 0.22013 0.05927 0.05503 0.13547 0.0889 0.22013 0.09313zm0-0.60113h-0.31327v0.31327h0.31327zm0.31327 3.0226h0.31327v-2.1082h0.31327v2.1082h0.31327v-2.1082c0-0.17357-0.1397-0.31327-0.31327-0.31327h-0.62653zm1.3208 0.61807h0.5588c0.17357 0 0.31327-0.1397 0.31327-0.31327v-2.2818c0-0.25823-0.21167-0.4699-0.4699-0.4699s-0.4699 0.21167-0.4699 0.4699v1.6637c0 0.17357 0.1397 0.31327 0.31327 0.31327h0.31327v0.3048h-0.5588zm0.24553-2.7263h0.31327v1.7949h-0.31327z" fill="#208080" stroke-linecap="round" stroke-linejoin="round" stroke-width="1.3229" aria-label="railing"/>
		<path d="m106 100v-30l5 15z" fill="#202020" stroke="#606000" stroke-linejoin="round" stroke-width=".265"/>
		<path d="m101 100v-30h5v30z" fill="#202020" stroke="#808080" stroke-width=".265"/>
		<g fill="#208080" stroke-linecap="round" stroke-linejoin="round">
			<g stroke-width="1.3229">
				<path transform="rotate(-90)" d="m-88.559 104.7h0.31327v-2.1082h0.31327v-0.31327h-0.31327c-0.17357 0-0.31327 0.1397-0.31327 0.31327zm1.8034-2.1082c0-0.17357-0.1397-0.31327-0.31327-0.31327h-0.5588v0.31327h0.5588v0.32597h-0.31327c-0.17357 0-0.31327 0.1397-0.31327 0.31326v1.1557c0 0.17357 0.1397 0.31327 0.31327 0.31327h0.62653zm-0.62653 0.63923h0.31327v1.1557h-0.31327zm1.2531-0.9525h-0.31327v2.1336c0 0.0847 0.03387 0.1651 0.09313 0.22013 0.05927 0.055 0.13547 0.0889 0.22013 0.0931zm0-0.60113h-0.31327v0.31327h0.31327zm0.31327 3.0226h0.31327v-2.7347c0-0.0847-0.03387-0.1651-0.09313-0.22014-0.05927-0.055-0.13547-0.0889-0.22013-0.0931zm0.9398-2.4215h-0.31327v2.1336c0 0.0847 0.03387 0.1651 0.09313 0.22013 0.05927 0.055 0.13547 0.0889 0.22013 0.0931zm0-0.60113h-0.31327v0.31327h0.31327zm0.31327 3.0226h0.31327v-2.1082h0.31327v2.1082h0.31327v-2.1082c0-0.17357-0.1397-0.31327-0.31327-0.31327h-0.62653zm1.3208 0.61806h0.5588c0.17357 0 0.31327-0.1397 0.31327-0.31326v-2.2818c0-0.25823-0.21167-0.4699-0.4699-0.4699s-0.4699 0.21167-0.4699 0.4699v1.6637c0 0.17357 0.1397 0.31327 0.31327 0.31327h0.31327v0.3048h-0.5588zm0.24553-2.7263h0.31327v1.7949h-0.31327z" aria-label="railing"/>
				<path d="m88.885 87.593h0.31327v-0.59267h0.31327c0.17357 0 0.31327-0.1397 0.31327-0.31327v-1.7949c0-0.17357-0.1397-0.31327-0.31327-0.31327h-0.62653zm0.31327-2.7009h0.31327v1.7949h-0.31327zm1.8796 0c0-0.17357-0.1397-0.31327-0.31327-0.31327h-0.5588v0.31327h0.5588v0.32597h-0.31327c-0.17357 0-0.31327 0.1397-0.31327 0.31327v1.1557c0 0.17357 0.1397 0.31327 0.31327 0.31327h0.62653zm-0.62653 0.63923h0.31327v1.1557h-0.31327zm1.5663-0.9525h-0.31327v-0.60113h-0.31327v2.7347c0 0.08467 0.03387 0.1651 0.09313 0.22013 0.05927 0.05503 0.13547 0.0889 0.22013 0.09313v-2.1336h0.31327zm0.15663 2.4215h0.31327v-2.1082h0.31327v2.1082h0.31327v-2.1082c0-0.17357-0.1397-0.31327-0.31327-0.31327h-0.31327v-0.60113h-0.31327z" aria-label="path"/>
				<path transform="rotate(-90)" d="m-86.213 107.08h-0.31327v-0.60113h-0.31327v2.7347c0 0.0847 0.03387 0.1651 0.09313 0.22014 0.05927 0.055 0.13547 0.0889 0.22013 0.0931v-2.1336h0.31327zm0.15663 2.4215h0.31327v-2.1082h0.31327v-0.31327h-0.31327c-0.17357 0-0.31327 0.1397-0.31327 0.31327zm1.1769-2.4215h-0.31327v2.1336c0 0.0847 0.03387 0.1651 0.09313 0.22014 0.05927 0.055 0.13547 0.0889 0.22013 0.0931zm0-0.60113h-0.31327v0.31327h0.31327zm0.31327 3.0226h0.31327v-2.1082h0.31327v2.1082h0.31327v-2.1082h0.31327v2.1082h0.31327v-2.1082c0-0.17357-0.1397-0.31327-0.31327-0.31327h-1.2531z" aria-label="trim"/>
				<path transform="rotate(-90)" d="m-86.213 73.082h-0.31327v-0.60113h-0.31327v2.7347c0 0.08467 0.03387 0.1651 0.09313 0.22013 0.05927 0.05503 0.13547 0.0889 0.22013 0.09313v-2.1336h0.31327zm0.15663 2.4215h0.31327v-2.1082h0.31327v-0.31327h-0.31327c-0.17357 0-0.31327 0.1397-0.31327 0.31327zm1.1769-2.4215h-0.31327v2.1336c0 0.08467 0.03387 0.1651 0.09313 0.22013 0.05927 0.05503 0.13547 0.0889 0.22013 0.09313zm0-0.60113h-0.31327v0.31327h0.31327zm0.31327 3.0226h0.31327v-2.1082h0.31327v2.1082h0.31327v-2.1082h0.31327v2.1082h0.31327v-2.1082c0-0.17357-0.1397-0.31327-0.31327-0.31327h-1.2531z" aria-label="trim"/>
				<path d="m83.678 66.914c0-0.17357-0.1397-0.31327-0.31327-0.31327h-0.5588v0.31327h0.5588v0.32597h-0.31327c-0.17357 0-0.31327 0.1397-0.31327 0.31327v1.1557c0 0.17357 0.1397 0.31327 0.31327 0.31327h0.62653zm-0.62653 0.63923h0.31327v1.1557h-0.31327zm1.8796-1.5536h-0.31327v0.60113h-0.31327c-0.17357 0-0.31327 0.1397-0.31327 0.31327v1.7949c0 0.17357 0.1397 0.31327 0.31327 0.31327h0.62653zm-0.62653 0.9144h0.31327v1.7949h-0.31327zm0.9398 2.7263c0.08467-0.0042 0.16087-0.0381 0.22013-0.09313 0.05927-0.05503 0.09313-0.13547 0.09313-0.22013v-2.7263h-0.31326zm0.31327-3.6407h-0.31327v0.31327h0.31327zm0.31327 2.5781c0 0.25823 0.21167 0.4699 0.4699 0.4699s0.4699-0.21167 0.4699-0.4699v-1.5325c0-0.25823-0.21167-0.4699-0.4699-0.4699s-0.4699 0.21167-0.4699 0.4699zm0.31327-1.6637h0.31327v1.7949h-0.31327zm1.2531-0.31327h-0.31327v2.1336c0 0.08467 0.03387 0.1651 0.09313 0.22013 0.05927 0.05503 0.13547 0.0889 0.22013 0.09313zm0-0.60113h-0.31327v0.31327h0.31327zm0.31327 3.0226h0.31327v-2.1082h0.31327v2.1082h0.31327v-2.1082c0-0.17357-0.1397-0.31327-0.31327-0.31327h-0.62653zm1.5663-2.4215h-0.31327v2.1336c0 0.08467 0.03387 0.1651 0.09313 0.22013 0.05927 0.05503 0.13547 0.0889 0.22013 0.09313zm0-0.60113h-0.31327v0.31327h0.31327zm0.31327 3.0226h0.31327v-2.1082h0.31327v2.1082h0.31327v-2.1082c0-0.17357-0.1397-0.31327-0.31327-0.31327h-0.62653zm1.3208 0.61807h0.5588c0.17357 0 0.31327-0.1397 0.31327-0.31327v-2.2818c0-0.25823-0.21167-0.4699-0.4699-0.4699s-0.4699 0.21167-0.4699 0.4699v1.6637c0 0.17357 0.1397 0.31327 0.31327 0.31327h0.31327v0.3048h-0.5588zm0.24553-2.7263h0.31327v1.7949h-0.31327zm2.1548 0.31327h0.31327v-0.18203c0-0.25823-0.21167-0.4699-0.4699-0.4699s-0.4699 0.21167-0.4699 0.4699v0.6096c0 0.17357 0.1397 0.31327 0.31327 0.31327h0.31327v0.74083h-0.31327v-0.31327h-0.31327v0.18203c0 0.25823 0.21167 0.4699 0.4699 0.4699s0.4699-0.21167 0.4699-0.4699v-0.6096c0-0.17357-0.1397-0.31327-0.31327-0.31327h-0.31327v-0.74083h0.31327zm0.9017-0.31327h0.31327v0.74083h-0.31327zm-0.31327 1.6637c0 0.25823 0.21167 0.4699 0.4699 0.4699s0.4699-0.21167 0.4699-0.4699v-0.18203h-0.31327v0.31327h-0.31327v-0.74083h0.62653v-0.92287c0-0.25823-0.21167-0.4699-0.4699-0.4699s-0.4699 0.21167-0.4699 0.4699zm2.1929-0.18203h-0.31327v0.31327h-0.31327v-1.7949h0.31327v0.31327h0.31327v-0.18203c0-0.25823-0.21167-0.4699-0.4699-0.4699-0.25823 0-0.4699 0.21167-0.4699 0.4699v1.5325c0 0.25823 0.21167 0.4699 0.4699 0.4699 0.25823 0 0.4699-0.21167 0.4699-0.4699zm0.9398-1.7949h-0.31327v-0.60113h-0.31327v2.7347c0 0.08467 0.03387 0.1651 0.09313 0.22013 0.05927 0.05503 0.13547 0.0889 0.22013 0.09313v-2.1336h0.31327zm0.15663 1.977c0 0.25823 0.21167 0.4699 0.4699 0.4699s0.4699-0.21167 0.4699-0.4699v-1.5325c0-0.25823-0.21167-0.4699-0.4699-0.4699s-0.4699 0.21167-0.4699 0.4699zm0.31327-1.6637h0.31327v1.7949h-0.31327zm0.9398 2.1082h0.31327v-2.1082h0.31327v-0.31327h-0.31327c-0.17357 0-0.31327 0.1397-0.31327 0.31327z" aria-label="adjoining sector"/>
				<path d="m83.678 101.36c0-0.17356-0.1397-0.31326-0.31327-0.31326h-0.5588v0.31326h0.5588v0.32597h-0.31327c-0.17357 0-0.31327 0.1397-0.31327 0.31327v1.1557c0 0.17356 0.1397 0.31326 0.31327 0.31326h0.62653zm-0.62653 0.63924h0.31327v1.1557h-0.31327zm1.8796-1.5536h-0.31327v0.60113h-0.31327c-0.17357 0-0.31327 0.1397-0.31327 0.31326v1.7949c0 0.17356 0.1397 0.31326 0.31327 0.31326h0.62653zm-0.62653 0.91439h0.31327v1.7949h-0.31327zm0.9398 2.7263c0.08467-4e-3 0.16087-0.0381 0.22013-0.0931 0.05927-0.055 0.09313-0.13547 0.09313-0.22014v-2.7263h-0.31326zm0.31327-3.6407h-0.31327v0.31326h0.31327zm0.31327 2.5781c0 0.25824 0.21167 0.4699 0.4699 0.4699s0.4699-0.21166 0.4699-0.4699v-1.5325c0-0.25824-0.21167-0.4699-0.4699-0.4699s-0.4699 0.21166-0.4699 0.4699zm0.31327-1.6637h0.31327v1.7949h-0.31327zm1.2531-0.31326h-0.31327v2.1336c0 0.0847 0.03387 0.1651 0.09313 0.22013 0.05927 0.055 0.13547 0.0889 0.22013 0.0931zm0-0.60113h-0.31327v0.31326h0.31327zm0.31327 3.0226h0.31327v-2.1082h0.31327v2.1082h0.31327v-2.1082c0-0.17356-0.1397-0.31326-0.31327-0.31326h-0.62653zm1.5663-2.4215h-0.31327v2.1336c0 0.0847 0.03387 0.1651 0.09313 0.22013 0.05927 0.055 0.13547 0.0889 0.22013 0.0931zm0-0.60113h-0.31327v0.31326h0.31327zm0.31327 3.0226h0.31327v-2.1082h0.31327v2.1082h0.31327v-2.1082c0-0.17356-0.1397-0.31326-0.31327-0.31326h-0.62653zm1.3208 0.61807h0.5588c0.17357 0 0.31327-0.1397 0.31327-0.31327v-2.2818c0-0.25824-0.21167-0.4699-0.4699-0.4699s-0.4699 0.21166-0.4699 0.4699v1.6637c0 0.17356 0.1397 0.31326 0.31327 0.31326h0.31327v0.3048h-0.5588zm0.24553-2.7263h0.31327v1.7949h-0.31327zm2.1548 0.31327h0.31327v-0.18203c0-0.25824-0.21167-0.4699-0.4699-0.4699s-0.4699 0.21166-0.4699 0.4699v0.6096c0 0.17356 0.1397 0.31326 0.31327 0.31326h0.31327v0.74084h-0.31327v-0.31327h-0.31327v0.18203c0 0.25824 0.21167 0.4699 0.4699 0.4699s0.4699-0.21166 0.4699-0.4699v-0.6096c0-0.17356-0.1397-0.31326-0.31327-0.31326h-0.31327v-0.74084h0.31327zm0.9017-0.31327h0.31327v0.74084h-0.31327zm-0.31327 1.6637c0 0.25824 0.21167 0.4699 0.4699 0.4699s0.4699-0.21166 0.4699-0.4699v-0.18203h-0.31327v0.31327h-0.31327v-0.74084h0.62653v-0.92286c0-0.25824-0.21167-0.4699-0.4699-0.4699s-0.4699 0.21166-0.4699 0.4699zm2.1929-0.18203h-0.31327v0.31327h-0.31327v-1.7949h0.31327v0.31327h0.31327v-0.18203c0-0.25824-0.21167-0.4699-0.4699-0.4699-0.25823 0-0.4699 0.21166-0.4699 0.4699v1.5325c0 0.25824 0.21167 0.4699 0.4699 0.4699 0.25823 0 0.4699-0.21166 0.4699-0.4699zm0.9398-1.7949h-0.31327v-0.60113h-0.31327v2.7347c0 0.0847 0.03387 0.1651 0.09313 0.22013 0.05927 0.055 0.13547 0.0889 0.22013 0.0931v-2.1336h0.31327zm0.15663 1.977c0 0.25824 0.21167 0.4699 0.4699 0.4699s0.4699-0.21166 0.4699-0.4699v-1.5325c0-0.25824-0.21167-0.4699-0.4699-0.4699s-0.4699 0.21166-0.4699 0.4699zm0.31327-1.6637h0.31327v1.7949h-0.31327zm0.9398 2.1082h0.31327v-2.1082h0.31327v-0.31326h-0.31327c-0.17357 0-0.31327 0.1397-0.31327 0.31326z" aria-label="adjoining sector"/>
			</g>
			<g stroke="#808080" stroke-width=".265">
				<path d="m76 66v4"/>
				<path d="m106 66v4"/>
				<path d="m76 100v4"/>
				<path d="m106 100v4"/>
			</g>
		</g>
	</g>
</svg>
