<svg width="60mm" height="60mm" version="1.1" viewBox="0 0 60 60" xmlns="http://www.w3.org/2000/svg">
	<g transform="translate(-69.868 -64.906)">
		<path d="m122.53 102.53v-5l-8-1e-6v-5h8v-5h5v15z" fill="#404040" stroke="#808080" stroke-width=".265"/>
		<path d="m112.53 87.529v-15h5v15z" fill="#404040" stroke="#808080" stroke-width=".265"/>
		<path d="m102.53 102.53v-15l25-11-0.0529 36.879z" fill="#f00" fill-opacity=".25"/>
		<g>
			<path d="m85.086 95.029 42.443-18.5" stroke="#ff000f" stroke-dasharray="0.264999, 0.264999" stroke-width=".265"/>
			<path d="m85.033 94.908 42.443 18.5" stroke="#ff000f" stroke-dasharray="0.264999, 0.264999" stroke-width=".265"/>
			<rect transform="rotate(-90)" x="-97.529" y="82.604" width="5" height="4.9252" fill="#60cd34"/>
			<path d="m83.076 95.529 1.4909 2e-6 -0.56656 1.5801 3.1092-2.0801-3.1092-2.0481 0.52917 1.5481h-1.4665z"/>
		</g>
		<g fill="#404040" stroke="#808080" stroke-width=".265">
			<path d="m72.529 117.53v-25h5v20h10v5z"/>
			<path d="m82.529 82.529v-5h10v5z"/>
			<path d="m102.53 117.03v-5h5v5z"/>
		</g>
		<g stroke-width=".265">
			<path d="m102.53 102.53v-15h5v15z" stroke="#fff"/>
			<path d="m87.529 92.529 25-25" fill="none" stroke="#0ff" stroke-dasharray="1.06, 0.264999"/>
			<path d="m87.529 97.529 25 25" fill="none" stroke="#0ff" stroke-dasharray="1.06, 0.264999"/>
		</g>
	</g>
</svg>
