<svg width="80mm" height="100mm" version="1.1" viewBox="0 0 80 100" xmlns="http://www.w3.org/2000/svg" xmlns:xlink="http://www.w3.org/1999/xlink">
	<defs>
		<linearGradient id="b" x1="100" x2="100" y1="130" y2="70" gradientTransform="rotate(180,70,75)" gradientUnits="userSpaceOnUse" xlink:href="#a"/>
		<linearGradient id="a">
			<stop stop-color="#ff0" offset="0"/>
			<stop stop-color="#0ff" offset="1"/>
		</linearGradient>
		<linearGradient id="d" x1="100" x2="100" y1="140" y2="60" gradientTransform="rotate(180 90 75)" gradientUnits="userSpaceOnUse" xlink:href="#a"/>
		<linearGradient id="c" x1="100" x2="100" y1="140" y2="60" gradientTransform="matrix(1,0,0,-1,-100,150)" gradientUnits="userSpaceOnUse" xlink:href="#a"/>
	</defs>
	<g stroke="#000" stroke-linejoin="round">
		<path d="m60 20h-40l-10-10h60z" fill="#c04040"/>
		<path d="m20 80h40l10 10-60 9e-6z" fill="#4040c0"/>
		<path d="m60 80h-40v-60h40z" fill="url(#b)"/>
		<path d="m70 90-10-10v-60l10-10z" fill="url(#d)"/>
		<path d="m10 90 10-10v-60l-10-10z" fill="url(#c)"/>
	</g>
	<path d="m34.5 30s-4.583 0.35498-6.0517 5.7988l-4.9482-3.2988 3.116 7.0819a16.25 16.25 0 0 0-2.8661 9.168 16.25 16.25 0 0 0 0.75024 4.8249l-4.5002 2.9251h5.7641a16.25 16.25 0 0 0 11.662 8.2778c1.4761 3.0595 2.5739 5.2222 2.5739 5.2222s1.0944-2.1559 2.5669-5.2075a16.25 16.25 0 0 0 11.713-8.2925h5.7196l-4.488-2.9172a16.25 16.25 0 0 0 0.73793-4.8328 16.25 16.25 0 0 0-2.8661-9.168l3.1161-7.0819-4.9483 3.2989c-1.4687-5.4439-6.0516-5.7989-6.0516-5.7989s2.1013 1.5035 3.057 4.9548a16.25 16.25 0 0 0-8.557-2.4548 16.25 16.25 0 0 0-8.5483 2.4501c0.95393-3.448 3.0483-4.9501 3.0483-4.9501zm5.5 5a13.75 13.75 0 0 1 8.4015 2.8989l-7.0426 4.695c-0.58503-2.741-1.359-5.0939-1.359-5.0939s-0.77406 2.3529-1.3591 5.0938l-7.0426-4.695a13.75 13.75 0 0 1 8.4017-2.8988zm-12.161 7.3606 1.6087 3.6562c0.37044 1.119 0.80009 2.304 1.2649 3.5201l-3.9969 2.598a13.75 13.75 0 0 1-0.4655-3.3849 13.75 13.75 0 0 1 1.5887-6.3894zm24.323 2.04e-4a13.75 13.75 0 0 1 1.5887 6.3892 13.75 13.75 0 0 1-0.43336 3.4058l-4.0289-2.6188c0.46493-1.2163 0.89456-2.4015 1.265-3.5207zm-23.489 14.139h4.925c0.8305 1.8877 1.6662 3.7198 2.4534 5.3991a13.75 13.75 0 0 1-7.3784-5.3991zm17.73 0h4.954a13.75 13.75 0 0 1-7.4163 5.4186c0.78978-1.6844 1.6287-3.5238 2.4623-5.4186z" fill="#00c000" style="paint-order:stroke fill markers"/>
	<path d="m35.723 15.948q-0.11369 0.04961-0.20671 0.09302-0.09095 0.04341-0.23978 0.09095-0.12609 0.03927-0.27492 0.06615-0.14676 0.02894-0.32453 0.02894-0.33486 0-0.60978-0.09302-0.27285-0.09508-0.47542-0.29559-0.19844-0.19637-0.31006-0.49816-0.11162-0.30386-0.11162-0.70487 0-0.38034 0.10749-0.68006t0.31006-0.50643q0.19637-0.2005 0.47336-0.30592 0.27905-0.10542 0.61805-0.10542 0.24805 0 0.49403 0.05994 0.24805 0.05994 0.54984 0.21084v0.48576h-0.03101q-0.25425-0.21291-0.50436-0.31006t-0.53537-0.09715q-0.23358 0-0.42168 0.07648-0.18604 0.07441-0.3328 0.23358-0.14263 0.15503-0.22324 0.39274-0.07855 0.23564-0.07855 0.5457 0 0.32453 0.08682 0.5581 0.08888 0.23358 0.22738 0.38034 0.14469 0.15296 0.33693 0.22738 0.1943 0.07235 0.40928 0.07235 0.29559 0 0.55397-0.10129 0.25838-0.10128 0.48369-0.30386h0.02894zm2.4805-0.8909h-1.7012q0 0.21291 0.06408 0.37207 0.06408 0.1571 0.1757 0.25838 0.10749 0.09922 0.25425 0.14883 0.14883 0.04961 0.3266 0.04961 0.23564 0 0.47336-0.09302 0.23978-0.09508 0.34106-0.18604h0.02067v0.42375q-0.19637 0.08268-0.40101 0.13849t-0.42995 0.05581q-0.57464 0-0.8971-0.31006-0.32246-0.31212-0.32246-0.8847 0-0.56637 0.30799-0.89917 0.31006-0.3328 0.81442-0.3328 0.46716 0 0.71934 0.27285 0.25425 0.27285 0.25425 0.77515zm-0.37827-0.29766q-0.0021-0.30592-0.15503-0.47336-0.1509-0.16743-0.46095-0.16743-0.31213 0-0.49816 0.18397-0.18397 0.18397-0.20877 0.45682zm1.3849-1.2836h-0.43822v-0.40308h0.43822zm-0.02481 2.6954h-0.38861v-2.3089h0.38861zm1.1617 0h-0.38861v-3.2163h0.38861zm1.1865-2.6954h-0.43821v-0.40308h0.43822zm-0.02481 2.6954h-0.38861v-2.3089h0.38861zm2.6996 0h-0.38861v-1.3146q0-0.15916-0.0186-0.29766-0.0186-0.14056-0.06821-0.21911-0.05168-0.08682-0.14883-0.12816-0.09715-0.04341-0.25218-0.04341-0.15916 0-0.3328 0.07855-0.17363 0.07855-0.3328 0.2005v1.7239h-0.38861v-2.3089h0.38861v0.25631q0.1819-0.1509 0.3762-0.23564 0.1943-0.08475 0.39894-0.08475 0.37414 0 0.57051 0.22531t0.19637 0.64906zm2.621-0.26252q0 0.58704-0.26665 0.86196t-0.82062 0.27492q-0.18397 0-0.35967-0.02687-0.17363-0.02481-0.34313-0.07235v-0.39688h0.02067q0.09508 0.03721 0.30179 0.09095 0.2067 0.05581 0.41341 0.05581 0.19844 0 0.32866-0.04754t0.20257-0.13229q0.07235-0.08061 0.10335-0.1943 0.03101-0.11369 0.03101-0.25425v-0.21084q-0.1757 0.14056-0.33693 0.21084-0.15916 0.06821-0.40721 0.06821-0.41341 0-0.65732-0.29766-0.24184-0.29972-0.24184-0.84336 0-0.29766 0.08268-0.51263 0.08475-0.21704 0.22944-0.37414 0.13436-0.14676 0.3266-0.22738 0.19224-0.08268 0.3824-0.08268 0.2005 0 0.33486 0.04134 0.13643 0.03927 0.28732 0.12196l0.02481-0.09922h0.3638zm-0.38861-0.37207v-1.2588q-0.15503-0.07028-0.28939-0.09922-0.13229-0.03101-0.26458-0.03101-0.32039 0-0.50436 0.21497t-0.18397 0.62425q0 0.38861 0.13642 0.58911 0.13643 0.2005 0.45268 0.2005 0.1695 0 0.339-0.06408 0.17157-0.06615 0.31419-0.1757z" aria-label="Ceiling"/>
	<path d="m29.024 22.286h-1.0997v2.714h-0.40928v-2.714h-1.0997v-0.3638h2.6086zm1.8955 1.5606q0 0.56431-0.28939 0.8909t-0.77515 0.3266q-0.48989 0-0.77928-0.3266-0.28732-0.3266-0.28732-0.8909t0.28732-0.8909q0.28939-0.32866 0.77928-0.32866 0.48576 0 0.77515 0.32866 0.28939 0.3266 0.28939 0.8909zm-0.40101 0q0-0.44855-0.1757-0.66559-0.1757-0.21911-0.48782-0.21911-0.31626 0-0.49196 0.21911-0.17363 0.21704-0.17363 0.66559 0 0.43408 0.1757 0.65939 0.1757 0.22324 0.48989 0.22324 0.31006 0 0.48576-0.22118 0.17777-0.22324 0.17777-0.66146zm3.0344-0.02894q0 0.28112-0.08062 0.5147-0.08062 0.23151-0.22738 0.39274-0.13642 0.15296-0.32246 0.23771-0.18397 0.08268-0.39067 0.08268-0.17983 0-0.3266-0.03927-0.14469-0.03927-0.29559-0.12196v0.96738h-0.3886v-3.1605h0.38861v0.24184q0.15503-0.13022 0.34727-0.21704 0.1943-0.08888 0.41341-0.08888 0.41754 0 0.64906 0.31626 0.23358 0.31419 0.23358 0.87436zm-0.40101 0.01034q0-0.41755-0.14263-0.62425-0.14263-0.20671-0.43822-0.20671-0.16743 0-0.33693 0.07235t-0.32453 0.19017v1.3084q0.16536 0.07441 0.28319 0.10129 0.11989 0.02687 0.27078 0.02687 0.32453 0 0.50643-0.21911t0.1819-0.64906zm4.8803 1.172h-0.40928v-1.5069h-1.5358v1.5069h-0.40928v-3.0778h0.40928v1.2072h1.5358v-1.2072h0.40928zm2.59 0h-0.38654v-0.24598q-0.05168 0.03514-0.14056 0.09922-0.08682 0.06201-0.1695 0.09922-0.09715 0.04754-0.22324 0.07855-0.12609 0.03307-0.29559 0.03307-0.31213 0-0.52917-0.20671-0.21704-0.2067-0.21704-0.5271 0-0.26252 0.11162-0.42375 0.11369-0.1633 0.32246-0.25632 0.21084-0.09302 0.50643-0.12609t0.63459-0.04961v-0.05995q0-0.13229-0.04754-0.21911-0.04548-0.08682-0.13229-0.13643-0.08268-0.04754-0.19844-0.06408t-0.24185-0.01654q-0.15296 0-0.34106 0.04134-0.1881 0.03927-0.38861 0.11576h-0.02067v-0.39481q0.11369-0.03101 0.32866-0.06821 0.21497-0.03721 0.42375-0.03721 0.24391 0 0.42375 0.04134 0.1819 0.03927 0.31419 0.13642 0.13022 0.09509 0.19844 0.24598 0.06821 0.1509 0.06821 0.37414zm-0.38654-0.56844v-0.64286q-0.17777 0.01034-0.41961 0.03101-0.23978 0.02067-0.38034 0.05994-0.16743 0.04754-0.27078 0.14883-0.10335 0.09922-0.10335 0.27492 0 0.19844 0.11989 0.29972 0.11989 0.09922 0.36587 0.09922 0.20464 0 0.37414-0.07855 0.1695-0.08061 0.31419-0.19224zm1.5276 0.56844h-0.38861v-3.2163h0.38861zm2.0112-2.8401h-0.02067q-0.06408-0.0186-0.16743-0.03721-0.10335-0.02067-0.1819-0.02067-0.25011 0-0.3638 0.11162-0.11162 0.10955-0.11162 0.39894v0.07855h0.70073v0.3266h-0.68833v1.9823h-0.38861v-1.9823h-0.26252v-0.3266h0.26252v-0.07648q0-0.41134 0.20464-0.63045 0.20464-0.22118 0.59118-0.22118 0.13022 0 0.23358 0.0124 0.10542 0.0124 0.19224 0.02894zm5.3475-0.23771-0.79995 3.0778h-0.46095l-0.64699-2.5549-0.63252 2.5549h-0.45062l-0.81442-3.0778h0.41961l0.64699 2.559 0.63665-2.559h0.41548l0.64285 2.5838 0.64286-2.5838zm2.1601 3.0778h-0.38654v-0.24598q-0.05168 0.03514-0.14056 0.09922-0.08682 0.06201-0.1695 0.09922-0.09715 0.04754-0.22324 0.07855-0.12609 0.03307-0.29559 0.03307-0.31213 0-0.52917-0.20671-0.21704-0.2067-0.21704-0.5271 0-0.26252 0.11162-0.42375 0.11369-0.1633 0.32246-0.25632 0.21084-0.09302 0.50643-0.12609t0.63459-0.04961v-0.05995q0-0.13229-0.04754-0.21911-0.04547-0.08682-0.13229-0.13643-0.08268-0.04754-0.19844-0.06408t-0.24185-0.01654q-0.15296 0-0.34106 0.04134-0.1881 0.03927-0.38861 0.11576h-0.02067v-0.39481q0.11369-0.03101 0.32866-0.06821 0.21497-0.03721 0.42375-0.03721 0.24391 0 0.42375 0.04134 0.1819 0.03927 0.31419 0.13642 0.13022 0.09509 0.19844 0.24598 0.06821 0.1509 0.06821 0.37414zm-0.38654-0.56844v-0.64286q-0.17777 0.01034-0.41961 0.03101-0.23978 0.02067-0.38034 0.05994-0.16743 0.04754-0.27078 0.14883-0.10335 0.09922-0.10335 0.27492 0 0.19844 0.11989 0.29972 0.11989 0.09922 0.36587 0.09922 0.20464 0 0.37414-0.07855 0.1695-0.08061 0.31419-0.19224zm1.5276 0.56844h-0.38861v-3.2163h0.38861zm1.1617 0h-0.38861v-3.2163h0.38861z" aria-label="Top Half Wall"/>
	<path d="m36.917 48.457h-1.0997v2.714h-0.40928v-2.714h-1.0997v-0.3638h2.6086zm2.313 2.714h-0.38861v-1.3146q0-0.15916-0.0186-0.29766-0.0186-0.14056-0.06821-0.21911-0.05168-0.08682-0.14883-0.12816-0.09715-0.04341-0.25218-0.04341-0.15916 0-0.3328 0.07855t-0.3328 0.2005v1.7239h-0.38861v-3.2163h0.38861v1.1638q0.1819-0.1509 0.3762-0.23564 0.1943-0.08475 0.39894-0.08475 0.37414 0 0.57051 0.22531t0.19637 0.64906zm1.1658-2.6954h-0.43822v-0.40308h0.43822zm-0.02481 2.6954h-0.38861v-2.3089h0.38861zm2.6996 0h-0.38861v-1.3146q0-0.15916-0.0186-0.29766-0.0186-0.14056-0.06821-0.21911-0.05168-0.08682-0.14883-0.12816-0.09715-0.04341-0.25218-0.04341-0.15916 0-0.3328 0.07855t-0.3328 0.2005v1.7239h-0.38861v-2.3089h0.38861v0.25631q0.1819-0.1509 0.3762-0.23564 0.1943-0.08475 0.39894-0.08475 0.37414 0 0.57051 0.22531t0.19637 0.64906zm2.621-0.26252q0 0.58704-0.26665 0.86196t-0.82062 0.27492q-0.18397 0-0.35967-0.02687-0.17363-0.02481-0.34313-0.07235v-0.39688h0.02067q0.09508 0.03721 0.30179 0.09095 0.2067 0.05581 0.41341 0.05581 0.19844 0 0.32866-0.04754t0.20257-0.13229q0.07235-0.08062 0.10335-0.1943 0.03101-0.11369 0.03101-0.25425v-0.21084q-0.1757 0.14056-0.33693 0.21084-0.15916 0.06821-0.40721 0.06821-0.41341 0-0.65732-0.29766-0.24184-0.29972-0.24184-0.84336 0-0.29766 0.08268-0.51263 0.08475-0.21704 0.22944-0.37414 0.13436-0.14676 0.3266-0.22738 0.19224-0.08268 0.3824-0.08268 0.2005 0 0.33486 0.04134 0.13643 0.03927 0.28732 0.12196l0.0248-0.09922h0.3638zm-0.3886-0.37207v-1.2588q-0.15503-0.07028-0.28939-0.09922-0.13229-0.03101-0.26458-0.03101-0.32039 0-0.50436 0.21497t-0.18397 0.62425q0 0.38861 0.13643 0.58911t0.45268 0.2005q0.1695 0 0.339-0.06408 0.17157-0.06615 0.31419-0.1757z" aria-label="Thing"/>
	<path d="m24.876 76.753q0 0.22944-0.08682 0.40514t-0.23358 0.28939q-0.17363 0.13643-0.3824 0.1943-0.20671 0.05788-0.5271 0.05788h-1.0914v-3.0778h0.91157q0.33693 0 0.50436 0.02481t0.32039 0.10335q0.1695 0.08888 0.24598 0.22944 0.07648 0.13849 0.07648 0.3328 0 0.21911-0.11162 0.37414-0.11162 0.15296-0.29766 0.24598v0.01654q0.31213 0.06408 0.49196 0.27492 0.17983 0.20877 0.17983 0.52917zm-0.68833-1.387q0-0.11162-0.03721-0.1881t-0.11989-0.12402q-0.09715-0.05581-0.23564-0.06821-0.13849-0.01447-0.34313-0.01447h-0.48782v0.88883h0.52917q0.19224 0 0.30592-0.0186 0.11369-0.02067 0.21084-0.08268t0.13643-0.15916q0.04134-0.09922 0.04134-0.23358zm0.26252 1.4035q0-0.18604-0.05581-0.29559t-0.20257-0.18604q-0.09922-0.05168-0.24184-0.06615-0.14056-0.01654-0.34313-0.01654h-0.64285v1.1451h0.54157q0.26872 0 0.44028-0.02687 0.17156-0.02894 0.28112-0.10335 0.11576-0.08062 0.1695-0.18397t0.05374-0.26665zm2.9435-0.22324q0 0.56431-0.28939 0.8909-0.28939 0.3266-0.77515 0.3266-0.48989 0-0.77928-0.3266-0.28732-0.3266-0.28732-0.8909t0.28732-0.8909q0.28939-0.32866 0.77928-0.32866 0.48576 0 0.77515 0.32866 0.28939 0.3266 0.28939 0.8909zm-0.40101 0q0-0.44855-0.1757-0.66559-0.1757-0.21911-0.48782-0.21911-0.31626 0-0.49196 0.21911-0.17363 0.21704-0.17363 0.66559 0 0.43408 0.1757 0.65939 0.1757 0.22324 0.48989 0.22324 0.31006 0 0.48576-0.22118 0.17777-0.22324 0.17777-0.66146zm2.2014 1.1327q-0.10955 0.02894-0.23978 0.04754-0.12816 0.0186-0.22944 0.0186-0.35347 0-0.53743-0.19017t-0.18397-0.60978v-1.2278h-0.26252v-0.3266h0.26252v-0.66352h0.38861v0.66352h0.80202v0.3266h-0.80202v1.0521q0 0.1819 0.0083 0.28525 0.0083 0.10129 0.05788 0.19017 0.04547 0.08268 0.12402 0.12196 0.08061 0.03721 0.24391 0.03721 0.09508 0 0.19844-0.02687 0.10335-0.02894 0.14883-0.04754h0.02067zm1.6681 0q-0.10955 0.02894-0.23978 0.04754-0.12816 0.0186-0.22944 0.0186-0.35347 0-0.53744-0.19017t-0.18397-0.60978v-1.2278h-0.26252v-0.3266h0.26252v-0.66352h0.38861v0.66352h0.80202v0.3266h-0.80202v1.0521q0 0.1819 0.0083 0.28525 0.0083 0.10129 0.05788 0.19017 0.04547 0.08268 0.12402 0.12196 0.08061 0.03721 0.24391 0.03721 0.09509 0 0.19844-0.02687 0.10335-0.02894 0.14883-0.04754h0.02067zm2.4371-1.1327q0 0.56431-0.28939 0.8909-0.28939 0.3266-0.77514 0.3266-0.48989 0-0.77928-0.3266-0.28732-0.3266-0.28732-0.8909t0.28732-0.8909q0.28939-0.32866 0.77928-0.32866 0.48576 0 0.77514 0.32866 0.28939 0.3266 0.28939 0.8909zm-0.40101 0q0-0.44855-0.1757-0.66559-0.1757-0.21911-0.48782-0.21911-0.31626 0-0.49196 0.21911-0.17363 0.21704-0.17363 0.66559 0 0.43408 0.1757 0.65939 0.1757 0.22324 0.48989 0.22324 0.31006 0 0.48576-0.22118 0.17777-0.22324 0.17777-0.66146zm4.3718 1.1534h-0.38861v-1.3146q0-0.14883-0.01447-0.28732-0.0124-0.13849-0.05581-0.22118-0.04754-0.08888-0.13643-0.13436-0.08888-0.04548-0.25632-0.04548-0.1633 0-0.3266 0.08268-0.1633 0.08061-0.32659 0.2067 0.0062 0.04754 0.01034 0.11162 0.0041 0.06201 0.0041 0.12402v1.4779h-0.38858v-1.3146q0-0.15296-0.01447-0.28939-0.0124-0.13849-0.05581-0.22118-0.04754-0.08888-0.13643-0.13229-0.08888-0.04548-0.25632-0.04548-0.15916 0-0.32039 0.07855-0.15916 0.07855-0.31833 0.2005v1.7239h-0.38861v-2.3089h0.38861v0.25632q0.1819-0.1509 0.36174-0.23564 0.1819-0.08475 0.38654-0.08475 0.23564 0 0.39894 0.09922 0.16536 0.09922 0.24598 0.27492 0.23564-0.19844 0.42995-0.28525 0.1943-0.08888 0.41548-0.08888 0.38034 0 0.56017 0.23151 0.1819 0.22944 0.1819 0.64285zm4.6219 0h-0.40928v-1.5069h-1.5358v1.5069h-0.40928v-3.0778h0.40928v1.2072h1.5358v-1.2072h0.40928zm2.59 0h-0.38654v-0.24598q-0.05168 0.03514-0.14056 0.09922-0.08682 0.06201-0.1695 0.09922-0.09715 0.04754-0.22324 0.07855-0.12609 0.03307-0.29559 0.03307-0.31212 0-0.52917-0.20671-0.21704-0.2067-0.21704-0.5271 0-0.26252 0.11162-0.42375 0.11369-0.1633 0.32246-0.25632 0.21084-0.09302 0.50643-0.12609t0.63459-0.04961v-0.05994q0-0.13229-0.04754-0.21911-0.04548-0.08682-0.13229-0.13643-0.08268-0.04754-0.19844-0.06408t-0.24184-0.01654q-0.15296 0-0.34106 0.04134-0.1881 0.03927-0.38861 0.11576h-0.02067v-0.39481q0.11369-0.03101 0.32866-0.06821 0.21497-0.03721 0.42375-0.03721 0.24391 0 0.42375 0.04134 0.1819 0.03927 0.31419 0.13642 0.13022 0.09508 0.19844 0.24598 0.06821 0.1509 0.06821 0.37414zm-0.38654-0.56844v-0.64285q-0.17777 0.01034-0.41961 0.03101-0.23978 0.02067-0.38034 0.05994-0.16743 0.04754-0.27078 0.14883-0.10335 0.09922-0.10335 0.27492 0 0.19844 0.11989 0.29972 0.11989 0.09922 0.36587 0.09922 0.20464 0 0.37414-0.07855 0.1695-0.08062 0.31419-0.19224zm1.5276 0.56844h-0.38861v-3.2163h0.38861zm2.0112-2.8401h-0.02067q-0.06408-0.0186-0.16743-0.03721-0.10335-0.02067-0.1819-0.02067-0.25011 0-0.3638 0.11162-0.11162 0.10955-0.11162 0.39894v0.07855h0.70073v0.3266h-0.68833v1.9823h-0.38861v-1.9823h-0.26252v-0.3266h0.26252v-0.07648q0-0.41134 0.20464-0.63045 0.20464-0.22118 0.59118-0.22118 0.13022 0 0.23358 0.0124 0.10542 0.0124 0.19224 0.02894zm5.3475-0.23771-0.79995 3.0778h-0.46095l-0.64699-2.5549-0.63252 2.5549h-0.45062l-0.81442-3.0778h0.41961l0.64699 2.559 0.63665-2.559h0.41548l0.64285 2.5838 0.64285-2.5838zm2.1601 3.0778h-0.38654v-0.24598q-0.05168 0.03514-0.14056 0.09922-0.08682 0.06201-0.1695 0.09922-0.09715 0.04754-0.22324 0.07855-0.12609 0.03307-0.29559 0.03307-0.31213 0-0.52917-0.20671-0.21704-0.2067-0.21704-0.5271 0-0.26252 0.11162-0.42375 0.11369-0.1633 0.32246-0.25632 0.21084-0.09302 0.50643-0.12609t0.63459-0.04961v-0.05994q0-0.13229-0.04754-0.21911-0.04548-0.08682-0.13229-0.13643-0.08268-0.04754-0.19844-0.06408t-0.24185-0.01654q-0.15296 0-0.34106 0.04134-0.1881 0.03927-0.38861 0.11576h-0.02067v-0.39481q0.11369-0.03101 0.32866-0.06821 0.21497-0.03721 0.42375-0.03721 0.24391 0 0.42375 0.04134 0.1819 0.03927 0.31419 0.13642 0.13022 0.09508 0.19844 0.24598 0.06821 0.1509 0.06821 0.37414zm-0.38654-0.56844v-0.64285q-0.17777 0.01034-0.41961 0.03101-0.23978 0.02067-0.38034 0.05994-0.16743 0.04754-0.27078 0.14883-0.10335 0.09922-0.10335 0.27492 0 0.19844 0.11989 0.29972 0.11989 0.09922 0.36587 0.09922 0.20464 0 0.37414-0.07855 0.1695-0.08062 0.31419-0.19224zm1.5276 0.56844h-0.38861v-3.2163h0.38861zm1.1617 0h-0.38861v-3.2163h0.38861z" aria-label="Bottom Half Wall"/>
	<path d="m36.894 83.862h-1.5565v0.86816h1.3374v0.3638h-1.3374v1.4821h-0.40928v-3.0778h1.9658zm0.82889 2.714h-0.38861v-3.2163h0.38861zm2.7368-1.1534q0 0.56431-0.28939 0.8909t-0.77515 0.32659q-0.48989 0-0.77928-0.32659-0.28732-0.3266-0.28732-0.8909t0.28732-0.8909q0.28939-0.32866 0.77928-0.32866 0.48576 0 0.77515 0.32866 0.28939 0.3266 0.28939 0.8909zm-0.40101 0q0-0.44855-0.1757-0.66559-0.1757-0.21911-0.48782-0.21911-0.31626 0-0.49196 0.21911-0.17363 0.21704-0.17363 0.66559 0 0.43408 0.1757 0.65939 0.1757 0.22324 0.48989 0.22324 0.31006 0 0.48576-0.22117 0.17777-0.22324 0.17777-0.66146zm2.9704 0q0 0.56431-0.28939 0.8909t-0.77515 0.32659q-0.48989 0-0.77928-0.32659-0.28732-0.3266-0.28732-0.8909t0.28732-0.8909q0.28939-0.32866 0.77928-0.32866 0.48576 0 0.77515 0.32866 0.28939 0.3266 0.28939 0.8909zm-0.40101 0q0-0.44855-0.1757-0.66559-0.1757-0.21911-0.48782-0.21911-0.31626 0-0.49196 0.21911-0.17363 0.21704-0.17363 0.66559 0 0.43408 0.1757 0.65939 0.1757 0.22324 0.48989 0.22324 0.31006 0 0.48576-0.22117 0.17777-0.22324 0.17777-0.66146zm2.4433-0.73174h-0.02067q-0.08682-0.02067-0.1695-0.02894-0.08061-0.01033-0.19224-0.01033-0.17983 0-0.34726 0.08061-0.16743 0.07855-0.32246 0.20464v1.6392h-0.38861v-2.3089h0.38861v0.34106q0.23151-0.18604 0.40721-0.26252 0.17777-0.07855 0.36174-0.07855 0.10129 0 0.14676 0.0062 0.04548 0.0041 0.13643 0.0186z" aria-label="Floor"/>
</svg>
