<svg width="160mm" height="130mm" version="1.1" viewBox="0 0 160 130" xmlns="http://www.w3.org/2000/svg" xmlns:xlink="http://www.w3.org/1999/xlink">
	<defs>
		<linearGradient id="b" x1="122.44" x2="122.44" y1="66.367" y2="106.37" gradientTransform="translate(-42.44 -6.3667)" gradientUnits="userSpaceOnUse" xlink:href="#a"/>
		<linearGradient id="a">
			<stop stop-color="#404040" offset="0"/>
			<stop stop-color="#bfbfbf" offset="1"/>
		</linearGradient>
		<linearGradient id="d" x1="82.44" x2="82.44" y1="56.367" y2="126.37" gradientTransform="translate(57.56 -6.3667)" gradientUnits="userSpaceOnUse" xlink:href="#a"/>
		<linearGradient id="c" x1="82.44" x2="82.44" y1="56.367" y2="126.37" gradientTransform="matrix(-1 0 0 1 102.44 -6.3667)" gradientUnits="userSpaceOnUse" xlink:href="#a"/>
	</defs>
	<path d="m30 100h100l20 20h-140z" fill="#bfbfbf" stroke="#000" stroke-linejoin="round"/>
	<path d="m30 60h100v40h-100z" fill="url(#b)" stroke="#000" stroke-linejoin="round"/>
	<g transform="translate(20 20)" fill="#fff" stroke="#000">
		<g>
			<path d="m90 20-8-2v1h-12v2h12v1z"/>
			<path d="m30 20 8-2v1h12v2h-12v1z"/>
			<path d="m60 50 2-8h-1v-12h-2v12h-1z"/>
			<path d="m60-10 2 8h-1v12h-2v-12h-1z"/>
		</g>
		<circle cx="60" cy="20" r="10" stroke-linejoin="round"/>
		<g>
			<path d="m81.213 41.213-4.2426-7.0711-0.70711 0.70711-8.4853-8.4853-1.4142 1.4142 8.4853 8.4853-0.70711 0.70711z"/>
			<path d="m38.787-1.2132 7.0711 4.2426-0.70711 0.70711 8.4853 8.4853-1.4142 1.4142-8.4853-8.4853-0.70711 0.70711z"/>
			<path d="m38.787 41.213 7.0711-4.2426-0.70711-0.70711 8.4853-8.4853-1.4142-1.4142-8.4853 8.4853-0.70711-0.70711z"/>
			<path d="m81.213-1.2132-4.2426 7.0711-0.70711-0.70711-8.4853 8.4853-1.4142-1.4142 8.4853-8.4853-0.70711-0.70711z"/>
		</g>
	</g>
	<g stroke-linejoin="round">
		<path d="m36.998 65.067q0 0.41961-0.18397 0.76068-0.1819 0.34106-0.48576 0.52917-0.21084 0.13022-0.47129 0.1881-0.25838 0.05788-0.68213 0.05788h-0.77721v-3.0778h0.76894q0.45062 0 0.7152 0.06615 0.26665 0.06408 0.45062 0.17777 0.31419 0.19637 0.48989 0.52296 0.1757 0.32659 0.1757 0.77514zm-0.42788-0.0062q0-0.36173-0.12609-0.60978t-0.3762-0.39067q-0.1819-0.10335-0.38654-0.14263-0.20464-0.04134-0.48989-0.04134h-0.38447v2.375h0.38447q0.29559 0 0.5147-0.04341 0.22118-0.04341 0.40514-0.16123 0.22944-0.14676 0.34313-0.38654 0.11576-0.23978 0.11576-0.59945zm3.5161 1.542h-0.43615l-0.30179-0.85783h-1.3312l-0.30179 0.85783h-0.41548l1.1203-3.0778h0.5457zm-0.86403-1.2092-0.5395-1.511-0.54157 1.511zm3.8778 1.2092h-0.53123l-1.0294-1.2237h-0.57671v1.2237h-0.40928v-3.0778h0.86196q0.27905 0 0.46509 0.03721 0.18604 0.03514 0.33486 0.12816 0.16743 0.10542 0.26045 0.26665 0.09508 0.15916 0.09508 0.40514 0 0.3328-0.16743 0.5581-0.16743 0.22324-0.46095 0.33693zm-0.95705-2.2118q0-0.13229-0.04754-0.23358-0.04548-0.10335-0.15296-0.17363-0.08888-0.05994-0.21084-0.08268-0.12196-0.0248-0.28732-0.0248h-0.48162v1.1617h0.41341q0.1943 0 0.339-0.03307 0.14469-0.03514 0.24598-0.12816 0.09302-0.08682 0.13643-0.19844 0.04547-0.11369 0.04547-0.28732zm3.8282 2.2118h-0.53123l-1.2175-1.3705-0.30592 0.3266v1.0439h-0.40928v-3.0778h0.40928v1.6061l1.4945-1.6061h0.49609l-1.3746 1.4469z" fill="#808080" stroke-linecap="round" aria-label="DARK"/>
		<path d="m34.848 95.448q0 0.22944-0.08682 0.40514t-0.23358 0.28939q-0.17363 0.13643-0.3824 0.1943-0.20671 0.0579-0.5271 0.0579h-1.0914v-3.0778h0.91157q0.33693 0 0.50436 0.0248 0.16743 0.0248 0.32039 0.10335 0.1695 0.0889 0.24598 0.22944 0.07648 0.1385 0.07648 0.3328 0 0.21911-0.11162 0.37414-0.11162 0.15296-0.29766 0.24598v0.0165q0.31212 0.0641 0.49196 0.27491 0.17983 0.20878 0.17983 0.52917zm-0.68833-1.387q0-0.11163-0.03721-0.18811-0.03721-0.0765-0.11989-0.12402-0.09715-0.0558-0.23564-0.0682-0.13849-0.0145-0.34313-0.0145h-0.48782v0.88883h0.52917q0.19224 0 0.30592-0.0186 0.11369-0.0207 0.21084-0.0827 0.09715-0.062 0.13642-0.15916 0.04134-0.0992 0.04134-0.23358zm0.26252 1.4035q0-0.18604-0.05581-0.29559-0.05581-0.10956-0.20257-0.18604-0.09922-0.0517-0.24185-0.0661-0.14056-0.0165-0.34313-0.0165h-0.64285v1.1452h0.54157q0.26872 0 0.44028-0.0269 0.17157-0.0289 0.28112-0.10335 0.11576-0.0806 0.1695-0.18397 0.05374-0.10335 0.05374-0.26665zm3.5533 0.93017h-0.53123l-1.0294-1.2237h-0.57671v1.2237h-0.40928v-3.0778h0.86196q0.27905 0 0.46509 0.0372 0.18604 0.0351 0.33486 0.12815 0.16743 0.10542 0.26045 0.26665 0.09509 0.15917 0.09509 0.40515 0 0.33279-0.16743 0.5581-0.16743 0.22324-0.46095 0.33693zm-0.95705-2.2118q0-0.13229-0.04754-0.23358-0.04548-0.10335-0.15296-0.17363-0.08888-0.0599-0.21084-0.0827-0.12196-0.0248-0.28732-0.0248h-0.48162v1.1617h0.41341q0.1943 0 0.339-0.0331 0.14469-0.0351 0.24598-0.12816 0.09302-0.0868 0.13643-0.19844 0.04548-0.11369 0.04548-0.28732zm2.4391 2.2118h-1.2154v-0.31419h0.40308v-2.4495h-0.40308v-0.31419h1.2154v0.31419h-0.40308v2.4495h0.40308zm3.2639-0.22738q-0.25218 0.11576-0.5519 0.20258-0.29766 0.0847-0.57671 0.0847-0.35967 0-0.65939-0.0992t-0.51056-0.29766q-0.21291-0.2005-0.32866-0.50023-0.11576-0.30179-0.11576-0.70486 0-0.73794 0.42995-1.1638 0.43201-0.42788 1.1844-0.42788 0.26252 0 0.53537 0.0641 0.27492 0.062 0.59118 0.21291v0.48576h-0.03721q-0.06408-0.0496-0.18604-0.13023-0.12196-0.0806-0.23978-0.13435-0.14263-0.0641-0.32453-0.10542-0.17983-0.0434-0.40928-0.0434-0.51676 0-0.81855 0.33279-0.29972 0.33073-0.29972 0.8971 0 0.59738 0.31419 0.93018 0.31419 0.33073 0.85576 0.33073 0.19844 0 0.39481-0.0393 0.19844-0.0393 0.34726-0.10129v-0.75447h-0.82476v-0.35967h1.2299zm3.0696 0.22738h-0.40928v-1.5069h-1.5358v1.5069h-0.40928v-3.0778h0.40928v1.2072h1.5358v-1.2072h0.40928zm3.022-2.714h-1.0997v2.714h-0.40928v-2.714h-1.0997v-0.3638h2.6086z" fill="#808080" stroke-linecap="round" aria-label="BRIGHT"/>
		<path d="m130 60 20-10v70l-20-20z" fill="url(#d)" stroke="#000"/>
		<path d="m30 60-20-10v70l20-20z" fill="url(#c)" stroke="#000"/>
	</g>
</svg>
